<svg xmlns="http://www.w3.org/2000/svg" viewBox="0 0 500 500"><g id="freepik--background-complete--inject-148"><path d="M466.49,108.62A30.42,30.42,0,1,1,432,83,30.38,30.38,0,0,1,466.49,108.62Z" style="fill:#f5f5f5"></path><path d="M459.33,109.67a23.19,23.19,0,1,1-26.27-19.56A23.16,23.16,0,0,1,459.33,109.67Z" style="fill:#ebebeb"></path><path d="M459.22,109a14.16,14.16,0,0,1-1-2.67,24.32,24.32,0,0,0-3.67-6.65,22.9,22.9,0,0,0-8.71-6.86,22.26,22.26,0,0,0-6.3-1.81,22.08,22.08,0,0,0-3.47-.21,25.69,25.69,0,0,0-3.56.35A24.38,24.38,0,0,0,429,92a23.42,23.42,0,0,0-3.19,1.38A22.73,22.73,0,0,0,423,95.17a20.74,20.74,0,0,0-2.45,2.09,23.2,23.2,0,0,0-3.68,4.68,23.7,23.7,0,0,0-2.13,4.76,24.34,24.34,0,0,0-1.16,7.5,13.86,13.86,0,0,1,0,2.85c-.11,0-.45-1-.67-2.82a21.49,21.49,0,0,1,.64-7.89,23.06,23.06,0,0,1,5.86-10.23,23,23,0,0,1,2.59-2.3,23.59,23.59,0,0,1,3-2,24.62,24.62,0,0,1,3.43-1.52,26.87,26.87,0,0,1,3.73-1A25.3,25.3,0,0,1,436,89a23.12,23.12,0,0,1,3.74.25,22.24,22.24,0,0,1,3.52.79,23.61,23.61,0,0,1,8.55,4.75,23.85,23.85,0,0,1,3.7,4.1,21.31,21.31,0,0,1,3.32,7.19A6.88,6.88,0,0,1,459.22,109Z" style="fill:#e0e0e0"></path><path d="M441,126.31l.64,4-3.56.57-.62-3.88c-3.56.35-7.12-.21-9.32-1.43l1.26-4.65a14.61,14.61,0,0,0,7.31,1.42l-.95-5.95c-4.11-.32-8.73-.94-9.55-6-.6-3.77,1.62-7.45,7.14-9l-.63-3.95,3.56-.57.62,3.88a16.28,16.28,0,0,1,7.58,1l-1.08,4.67a14.82,14.82,0,0,0-5.75-1l1,6c4.1.29,8.66.92,9.46,5.93C448.64,121.1,446.45,124.73,441,126.31Zm-6.08-15.17-.81-5.06c-1.82.73-2.4,1.89-2.21,3.06S433.24,110.89,434.89,111.14Zm7.5,7.6c-.2-1.25-1.34-1.76-3-2l.79,4.92C441.94,120.93,442.57,119.88,442.39,118.74Z" style="fill:#e0e0e0"></path><path d="M413,54.9a23.15,23.15,0,1,1-16.91-28A23.12,23.12,0,0,1,413,54.9Z" style="fill:#f5f5f5"></path><path d="M407.65,53.57a17.64,17.64,0,1,1-12.89-21.32A17.61,17.61,0,0,1,407.65,53.57Z" style="fill:#ebebeb"></path><path d="M407.78,53a10.91,10.91,0,0,1,.06-2.17,18.58,18.58,0,0,0-.68-5.73,18.1,18.1,0,0,0-1.49-3.68A17.76,17.76,0,0,0,403,37.79a17.84,17.84,0,0,0-3.92-3.09,18.63,18.63,0,0,0-2.38-1.14,20.2,20.2,0,0,0-2.61-.78,21,21,0,0,0-2.7-.36,17.78,17.78,0,0,0-2.64.06,17,17,0,0,0-2.52.44,17.19,17.19,0,0,0-2.33.77,17.7,17.7,0,0,0-6.8,5,18.56,18.56,0,0,0-3,5,11,11,0,0,1-.84,2,5.16,5.16,0,0,1,.34-2.18,16.31,16.31,0,0,1,2.72-5.37,17.57,17.57,0,0,1,7.07-5.53,16.12,16.12,0,0,1,2.48-.87,16.86,16.86,0,0,1,2.71-.51,18,18,0,0,1,2.85-.09,19.53,19.53,0,0,1,2.91.39,19.85,19.85,0,0,1,2.81.84,18,18,0,0,1,2.57,1.25A16.73,16.73,0,0,1,402,35.14,15.67,15.67,0,0,1,403.91,37a17.71,17.71,0,0,1,4.18,7.94,16.19,16.19,0,0,1,.27,6A5,5,0,0,1,407.78,53Z" style="fill:#e0e0e0"></path><path d="M389.94,60l-.7,3-2.67-.63.68-2.91a13,13,0,0,1-6.16-3.68l2.23-2.92a11.06,11.06,0,0,0,4.74,3.1l1-4.46c-2.8-1.41-5.88-3.17-5-7,.65-2.83,3.28-4.79,7.61-4.29l.69-3,2.67.62-.68,2.91a12.4,12.4,0,0,1,5.05,2.89l-2.1,3a11.22,11.22,0,0,0-3.77-2.34l-1.05,4.54c2.8,1.38,5.83,3.13,5,6.9C396.84,58.56,394.25,60.49,389.94,60ZM390,47.59l.88-3.79c-1.49,0-2.23.63-2.43,1.51S388.92,46.94,390,47.59Zm3.1,7.51c.22-.94-.44-1.62-1.49-2.29l-.86,3.69C392.16,56.51,392.91,56,393.11,55.1Z" style="fill:#e0e0e0"></path><path d="M346.6,352.07a30.42,30.42,0,1,1-34.47-25.66A30.38,30.38,0,0,1,346.6,352.07Z" style="fill:#f5f5f5"></path><path d="M339.44,353.11a23.18,23.18,0,1,1-26.27-19.56A23.15,23.15,0,0,1,339.44,353.11Z" style="fill:#ebebeb"></path><path d="M339.33,352.39a13.8,13.8,0,0,1-1-2.67,24.46,24.46,0,0,0-3.67-6.65,23.22,23.22,0,0,0-8.7-6.86,22.21,22.21,0,0,0-3-1.11,20.29,20.29,0,0,0-3.28-.7,22,22,0,0,0-3.46-.2,25.65,25.65,0,0,0-3.57.34,26.2,26.2,0,0,0-3.46.9,23.3,23.3,0,0,0-3.19,1.39,21.57,21.57,0,0,0-2.84,1.78,22.81,22.81,0,0,0-2.45,2.09,22.8,22.8,0,0,0-5.81,9.44,24.65,24.65,0,0,0-1.16,7.5,13.86,13.86,0,0,1,0,2.85,6.78,6.78,0,0,1-.67-2.81,21.47,21.47,0,0,1,.64-7.89,23.16,23.16,0,0,1,5.86-10.24,22.16,22.16,0,0,1,2.6-2.29,22.46,22.46,0,0,1,3-2,23.5,23.5,0,0,1,3.43-1.52,24.33,24.33,0,0,1,3.73-1,26.67,26.67,0,0,1,3.85-.37,24.31,24.31,0,0,1,3.74.25,22.26,22.26,0,0,1,3.52.8,21.86,21.86,0,0,1,3.23,1.25,23.31,23.31,0,0,1,9,7.6,21.28,21.28,0,0,1,3.31,7.19A6.83,6.83,0,0,1,339.33,352.39Z" style="fill:#e0e0e0"></path><path d="M321.08,369.75l.64,4-3.56.57-.62-3.88a17.15,17.15,0,0,1-9.32-1.43l1.26-4.66a14.61,14.61,0,0,0,7.31,1.42l-1-5.94c-4.11-.33-8.73-.94-9.55-6-.6-3.78,1.62-7.46,7.15-9l-.64-4,3.56-.57.62,3.88a16.28,16.28,0,0,1,7.58,1l-1.08,4.66a14.8,14.8,0,0,0-5.74-1l1,6c4.09.3,8.65.92,9.45,5.94C328.76,364.54,326.56,368.18,321.08,369.75ZM315,354.58l-.81-5.05c-1.82.73-2.4,1.88-2.21,3.05S313.36,354.34,315,354.58Zm7.5,7.6c-.2-1.24-1.34-1.75-3-2l.79,4.91C322.05,364.37,322.68,363.32,322.5,362.18Z" style="fill:#e0e0e0"></path><path d="M29.6,310.61A32.85,32.85,0,1,1,63,343.08,33,33,0,0,1,29.6,310.61Zm48.56-.79a15.71,15.71,0,1,0-15.46,16A15.76,15.76,0,0,0,78.16,309.82Z" style="fill:#f5f5f5"></path><path d="M29.6,310.61a33,33,0,0,1,32.32-33.54l.28,17.23a15.78,15.78,0,0,0,.5,31.56L63,343.08A33,33,0,0,1,29.6,310.61Z" style="fill:#e0e0e0"></path><path d="M59,274.42a37.55,37.55,0,0,1,38.44,37.4l-20.06.32c-.16-10.18-7.91-16.59-18-16.42Z" style="fill:#ebebeb"></path><rect x="311.05" y="182.59" width="36.27" height="36.27" rx="10.38" style="fill:#e0e0e0"></rect><path d="M330.76,200.54a4.47,4.47,0,0,0,2.65-4.12,4.18,4.18,0,1,0-8.35,0,4.45,4.45,0,0,0,2.66,4.16c-6.43,1-6.14,8-6.14,8l15.2.07S337.13,201.5,330.76,200.54Z" style="fill:#fff"></path><path d="M281.34,241.55c0,.15-11.8.26-26.35.26s-26.35-.11-26.35-.26,11.79-.26,26.35-.26S281.34,241.41,281.34,241.55Z" style="fill:#e0e0e0"></path><path d="M258.23,245.46c0,.14-6.62.26-14.79.26s-14.8-.12-14.8-.26,6.62-.26,14.8-.26S258.23,245.31,258.23,245.46Z" style="fill:#e0e0e0"></path><rect x="200.25" y="260.78" width="18.73" height="18.73" rx="3.05" style="fill:#f5f5f5"></rect><path d="M281.34,269.24c0,.14-11.8.26-26.35.26s-26.35-.12-26.35-.26S240.43,269,255,269,281.34,269.1,281.34,269.24Z" style="fill:#e0e0e0"></path><path d="M258.23,273.15c0,.14-6.62.26-14.79.26s-14.8-.12-14.8-.26,6.62-.26,14.8-.26S258.23,273,258.23,273.15Z" style="fill:#e0e0e0"></path><path d="M210.66,277.25a2,2,0,0,1-1.32-.5l-5.83-5.1a2,2,0,0,1,2.64-3l4.28,3.75,8-9.59a2,2,0,0,1,3.08,2.55l-9.29,11.18a2,2,0,0,1-1.38.71Z" style="fill:#e0e0e0"></path><rect x="200.25" y="231.71" width="18.73" height="18.73" rx="3.05" style="fill:#f5f5f5"></rect><path d="M210.66,248.18a2,2,0,0,1-1.32-.5l-5.83-5.1a2,2,0,0,1,2.64-3l4.28,3.75,8-9.6a2,2,0,0,1,3.08,2.56l-9.29,11.18a2,2,0,0,1-1.38.71Z" style="fill:#e0e0e0"></path><rect x="200.25" y="288.47" width="18.73" height="18.73" rx="3.05" style="fill:#f5f5f5"></rect><path d="M281.34,296.93c0,.14-11.8.26-26.35.26s-26.35-.12-26.35-.26,11.79-.26,26.35-.26S281.34,296.78,281.34,296.93Z" style="fill:#e0e0e0"></path><path d="M258.23,300.83c0,.15-6.62.26-14.79.26s-14.8-.11-14.8-.26,6.62-.26,14.8-.26S258.23,300.69,258.23,300.83Z" style="fill:#e0e0e0"></path><path d="M210.66,304.94a2,2,0,0,1-1.32-.5l-5.83-5.1a2,2,0,0,1,2.64-3l4.28,3.75,8-9.6a2,2,0,0,1,3.08,2.56l-9.29,11.18a2,2,0,0,1-1.38.71Z" style="fill:#e0e0e0"></path><rect x="188.53" y="359.54" width="26.82" height="109.81" style="fill:#f5f5f5"></rect><rect x="229.82" y="393.22" width="26.82" height="76.13" style="fill:#f5f5f5"></rect><rect x="271.12" y="427.4" width="26.82" height="41.95" style="fill:#f5f5f5"></rect></g><g id="freepik--Floor--inject-148"><path d="M450.75,469.35c0,.14-89.44.26-199.74.26s-199.76-.12-199.76-.26,89.42-.26,199.76-.26S450.75,469.21,450.75,469.35Z" style="fill:#263238"></path></g><g id="freepik--speech-bubble--inject-148"><path d="M85.69,122.46,83.47,115a25.85,25.85,0,1,0-6.19,6.89h0Z" style="fill:#fafafa"></path><path d="M85.69,122.46h-.52l-1.6-.08L77.26,122a.11.11,0,0,1-.11-.11l0-.07h0l.15.16a25.92,25.92,0,0,1-36.56-4.72,26,26,0,0,1,1.07-32.92,25.81,25.81,0,0,1,10.31-7.19,26.48,26.48,0,0,1,11.9-1.61,25.95,25.95,0,0,1,19.5,39.52V115c.7,2.42,1.23,4.29,1.6,5.58.17.6.3,1.07.4,1.41a3.69,3.69,0,0,1,.12.47l-.17-.5-.45-1.43c-.39-1.26-1-3.1-1.7-5.47a.1.1,0,0,1,0-.09A25.7,25.7,0,0,0,64,76.07a26,26,0,0,0-11.67,1.59,25.32,25.32,0,0,0-10.1,7.06,25.58,25.58,0,0,0,15.22,42.07,25.29,25.29,0,0,0,8.19,0,25.87,25.87,0,0,0,11.56-5,.1.1,0,0,1,.15,0,.11.11,0,0,1,0,.14h0l-.09-.18,6.23.46,1.62.13Z" style="fill:#263238"></path><path d="M54.2,101.5a2.63,2.63,0,1,1-2.62-2.62A2.62,2.62,0,0,1,54.2,101.5Z" style="fill:#263238"></path><path d="M64.7,101.5a2.63,2.63,0,1,1-2.63-2.62A2.62,2.62,0,0,1,64.7,101.5Z" style="fill:#263238"></path><path d="M75.16,100.19a2.62,2.62,0,1,1-3.58-1A2.61,2.61,0,0,1,75.16,100.19Z" style="fill:#263238"></path></g><g id="freepik--Coins--inject-148"><path d="M450.83,429.81a31.75,31.75,0,1,1-38.2-23.59A31.76,31.76,0,0,1,450.83,429.81Z" style="fill:#1E402D"></path><g style="opacity:0.1"><path d="M412.63,406.22A31.74,31.74,0,0,0,389,444.41s21.94-4.16,25.1-14.13S412.63,406.22,412.63,406.22Z" style="fill:#fff"></path></g><path d="M442.82,431.19a24.14,24.14,0,1,1-29-17.94A24.13,24.13,0,0,1,442.82,431.19Z" style="fill:#1E402D"></path><g style="opacity:0.2"><path d="M442.82,431.19a24.14,24.14,0,1,1-29-17.94A24.13,24.13,0,0,1,442.82,431.19Z"></path></g><path d="M443.71,432a23.81,23.81,0,1,1-28.65-17.7A23.81,23.81,0,0,1,443.71,432Z" style="fill:#1E402D"></path><g style="opacity:0.2"><path d="M443.71,432a23.81,23.81,0,1,1-28.65-17.7A23.81,23.81,0,0,1,443.71,432Z" style="fill:#fff"></path></g><path d="M421,435.26l-1.4-5.93h0a12.56,12.56,0,0,1,3.34.08,10.63,10.63,0,0,1,1.7.58l0-.2.41-2.35.1-.54-1.32-.86-.46.35a11.54,11.54,0,0,0-4.58-.23l-.77-3.26-1.21-.58.19.82-1.39.33.78,3.32c-4.48,1.52-6,4.65-5.32,7.65,1,4.08,4.71,4.31,8.15,4.33l1.39,5.88a11.56,11.56,0,0,1-6.4-.85l-.62,3.28a13.24,13.24,0,0,0,7.77.74l.58,2.46-1.14.29,1.33.51,2.41-.57-.78-3.29c4.5-1.56,6.1-4.66,5.39-7.66C428.23,435.47,424.44,435.28,421,435.26Zm-2.56-.05c-1.82-.1-3.23-.44-3.57-1.85s.33-2.56,2.34-3.38Zm1.16-5.89ZM423.06,444l-1.23-5.2c1.88.08,3.33.45,3.67,1.89C425.8,442,425.12,443.18,423.06,444Z" style="fill:#1E402D"></path><g style="opacity:0.30000000000000004"><path d="M421,435.26l-1.4-5.93h0a12.56,12.56,0,0,1,3.34.08,10.63,10.63,0,0,1,1.7.58l0-.2.41-2.35.1-.54-1.32-.86-.46.35a11.54,11.54,0,0,0-4.58-.23l-.77-3.26-1.21-.58.19.82-1.39.33.78,3.32c-4.48,1.52-6,4.65-5.32,7.65,1,4.08,4.71,4.31,8.15,4.33l1.39,5.88a11.56,11.56,0,0,1-6.4-.85l-.62,3.28a13.24,13.24,0,0,0,7.77.74l.58,2.46-1.14.29,1.33.51,2.41-.57-.78-3.29c4.5-1.56,6.1-4.66,5.39-7.66C428.23,435.47,424.44,435.28,421,435.26Zm-2.56-.05c-1.82-.1-3.23-.44-3.57-1.85s.33-2.56,2.34-3.38Zm1.16-5.89ZM423.06,444l-1.23-5.2c1.88.08,3.33.45,3.67,1.89C425.8,442,425.12,443.18,423.06,444Z"></path></g><path d="M422.63,446.64l.77,3.29-2.4.57-.77-3.26a13.11,13.11,0,0,1-7.78-.74l.62-3.28a11.58,11.58,0,0,0,6.41.85l-1.39-5.88c-3.45,0-7.2-.25-8.16-4.33-.71-3,.85-6.13,5.32-7.65l-.78-3.32,2.41-.57.77,3.26A13,13,0,0,1,424,426l-.51,3.25a12.54,12.54,0,0,0-5.13-.46l1.4,5.94c3.45,0,7.25.21,8.21,4.29C428.72,442,427.13,445.08,422.63,446.64Zm-5.38-12L416,429.41c-2,.82-2.64,2.08-2.33,3.37S415.43,434.54,417.25,434.64Zm7.06,5.49c-.34-1.44-1.79-1.81-3.67-1.89l1.23,5.2C423.94,442.61,424.61,441.4,424.31,440.13Z" style="fill:#1E402D"></path><path d="M425.64,461l.19-.07.55-.17.89-.27a9.28,9.28,0,0,0,1.21-.42l1.48-.6a6.85,6.85,0,0,0,.82-.4l.87-.46c.29-.17.62-.31.92-.52l.94-.62c.31-.22.66-.42,1-.67l1-.79a26.19,26.19,0,0,0,3.88-4l.86-1.27c.15-.22.3-.43.44-.65l.39-.7c.25-.47.54-.94.78-1.43l.67-1.54.17-.39c.05-.13.09-.27.13-.4l.27-.83.27-.83a8.11,8.11,0,0,0,.21-.85c.12-.58.27-1.16.37-1.76s.15-1.2.22-1.81a23.65,23.65,0,0,0-3.45-14.58c-.33-.52-.67-1-1-1.53s-.75-.94-1.12-1.4c-.2-.23-.36-.47-.57-.67l-.62-.63-.6-.61c-.11-.1-.2-.21-.31-.3l-.32-.28-1.29-1.07c-.43-.34-.9-.63-1.34-.94l-.65-.45-.69-.38-1.34-.74a25.36,25.36,0,0,0-5.27-1.87l-1.22-.27c-.4-.08-.8-.11-1.18-.16L422,413.5c-.36-.05-.71,0-1,0l-1,0a6.84,6.84,0,0,0-.91,0l-1.59.11a9.64,9.64,0,0,0-1.26.17l-.92.16-.57.1-.2,0,.19-.05.57-.11.92-.18a9.27,9.27,0,0,1,1.26-.2l1.6-.14a6.8,6.8,0,0,1,.91,0h1c.34,0,.7,0,1.06,0l1.13.13c.38.05.78.07,1.18.15l1.24.27a25,25,0,0,1,5.31,1.85l1.36.74c.23.13.47.25.69.39l.67.45c.44.31.91.6,1.35.94l1.3,1.08.33.27.31.31.61.62.62.62c.22.21.39.46.58.68.37.47.77.92,1.13,1.42s.68,1,1,1.54a23.78,23.78,0,0,1,3.48,14.72c-.07.61-.15,1.22-.22,1.83s-.26,1.18-.38,1.77a7.71,7.71,0,0,1-.21.86c-.1.28-.19.56-.28.84l-.27.83c-.05.14-.09.28-.14.41l-.17.39L442,448c-.24.5-.53,1-.79,1.44l-.39.71c-.14.22-.3.43-.45.65l-.88,1.27a25.2,25.2,0,0,1-3.92,4l-1,.79c-.32.25-.67.45-1,.67l-.95.61a8.56,8.56,0,0,1-.93.51l-.88.46a7.75,7.75,0,0,1-.83.39l-1.49.59a8.89,8.89,0,0,1-1.22.39l-.9.25-.55.15Z" style="fill:#263238"></path><path d="M397.05,457.82s-.08-.06-.2-.2l-.54-.62c-.24-.27-.52-.6-.82-1s-.66-.86-1-1.4l-.55-.84c-.19-.29-.36-.61-.55-.93-.4-.64-.74-1.37-1.12-2.12a31.55,31.55,0,0,1-2.94-10.54c-.06-.84-.14-1.64-.14-2.4,0-.37,0-.73,0-1.08l0-1c0-.64.09-1.22.14-1.72s.11-.94.17-1.29l.15-.81a.87.87,0,0,1,.06-.27,1.18,1.18,0,0,1,0,.28c0,.21-.06.48-.1.82s-.1.78-.13,1.28-.1,1.08-.1,1.71c0,.32,0,.65,0,1s0,.71,0,1.08c0,.75.09,1.54.16,2.38a35.87,35.87,0,0,0,1,5.35,35.22,35.22,0,0,0,1.9,5.11c.38.76.71,1.48,1.1,2.12.18.32.35.64.53.94l.54.84c.33.54.68,1,1,1.41s.56.76.78,1l.51.65A1.5,1.5,0,0,1,397.05,457.82Z" style="fill:#fff"></path><path d="M412.52,435.84a2.09,2.09,0,0,1-.85-.52,3.75,3.75,0,0,1-.88-4.43,2.35,2.35,0,0,1,.58-.8s-.2.32-.42.87a4,4,0,0,0-.23,2.25,4,4,0,0,0,1.07,2C412.2,435.62,412.54,435.8,412.52,435.84Z" style="fill:#fff"></path><path d="M415.64,425.6c-.07,0-.22-.4-.35-.93a2.35,2.35,0,0,1-.11-1,4.42,4.42,0,0,1,.46,1.93Z" style="fill:#fff"></path><path d="M415.76,412.14a4.3,4.3,0,0,1-.76.15c-.25,0-.55.09-.9.17s-.74.14-1.17.26-.9.23-1.4.39-1,.35-1.57.54a28.06,28.06,0,0,0-3.45,1.64,26,26,0,0,0-3.16,2.15c-.45.38-.89.72-1.27,1.09s-.73.69-1,1-.58.61-.82.87-.44.5-.59.69a4.26,4.26,0,0,1-.52.58,7.49,7.49,0,0,1,.44-.64c.15-.2.34-.44.57-.71s.48-.59.8-.91.64-.68,1-1,.81-.73,1.26-1.11a26,26,0,0,1,3.18-2.18,24.63,24.63,0,0,1,3.49-1.64c.56-.19,1.09-.39,1.6-.53s1-.27,1.41-.36.84-.17,1.19-.23a7.78,7.78,0,0,1,.9-.13A7.3,7.3,0,0,1,415.76,412.14Z" style="fill:#fff"></path><path d="M430.62,465.52a3,3,0,0,1-.51.28c-.34.17-.84.38-1.47.63a23.37,23.37,0,0,1-5.12,1.27,22.94,22.94,0,0,1-5.26.08c-.68-.07-1.22-.16-1.59-.23a4.36,4.36,0,0,1-.57-.14,2.36,2.36,0,0,1,.59,0c.37.05.91.1,1.58.15a25.57,25.57,0,0,0,10.31-1.34c.63-.22,1.14-.41,1.49-.56A2.17,2.17,0,0,1,430.62,465.52Z" style="fill:#fff"></path><path d="M450.83,429.81l-.14-.5c-.1-.32-.21-.82-.42-1.45a31.74,31.74,0,0,0-4.38-8.94,31.27,31.27,0,0,0-3.18-3.83,32.13,32.13,0,0,0-9.91-6.91,31.68,31.68,0,0,0-14.33-2.68,31.53,31.53,0,0,0-8.05,1.44,32.53,32.53,0,0,0-4,1.55,36.37,36.37,0,0,0-3.84,2.15,31.75,31.75,0,0,0-11.77,14.12,30.47,30.47,0,0,0-1.56,4.64,29.56,29.56,0,0,0-.83,4.89A31.63,31.63,0,0,0,393,453.73c.43.72.92,1.39,1.39,2.07s1,1.32,1.55,1.94a31.3,31.3,0,0,0,3.46,3.45,31.79,31.79,0,0,0,16.86,7.35,32.42,32.42,0,0,0,4.39.21,33.21,33.21,0,0,0,4.27-.4,31.68,31.68,0,0,0,7.84-2.32,31.81,31.81,0,0,0,11.61-8.81,32.15,32.15,0,0,0,5.77-10.61,32.7,32.7,0,0,0,1.48-9,32.13,32.13,0,0,0-.44-5.78c-.09-.66-.22-1.15-.28-1.48l-.09-.51s.18.67.42,2a30.63,30.63,0,0,1,.14,10,30.1,30.1,0,0,1-1.11,4.88,32,32,0,0,1-5.76,10.67,31.37,31.37,0,0,1-5.07,4.95,30.92,30.92,0,0,1-6.59,3.94A32.54,32.54,0,0,1,420.68,469a34.82,34.82,0,0,1-4.43-.2,31.92,31.92,0,0,1-17-7.4,30.9,30.9,0,0,1-3.49-3.47c-.55-.62-1-1.29-1.56-1.95s-1-1.36-1.4-2.09a31.76,31.76,0,0,1-4.62-19.58,29,29,0,0,1,.84-4.93,32.39,32.39,0,0,1,1.56-4.67,32,32,0,0,1,11.87-14.21,35.16,35.16,0,0,1,3.87-2.16,33,33,0,0,1,4-1.56,31.83,31.83,0,0,1,8.1-1.44A31.79,31.79,0,0,1,432.87,408a32.05,32.05,0,0,1,9.93,7,29.72,29.72,0,0,1,3.18,3.86,31,31,0,0,1,2.17,3.6,30.48,30.48,0,0,1,2.17,5.39C450.69,429.13,450.83,429.81,450.83,429.81Z" style="fill:#263238"></path><path d="M427,234.44a27.66,27.66,0,1,1-23.47-31.31A27.66,27.66,0,0,1,427,234.44Z" style="fill:#1E402D"></path><g style="opacity:0.1"><path d="M403.51,203.13a27.67,27.67,0,0,0-31.3,23.47s19.12,3.62,24.86-3.47S403.51,203.13,403.51,203.13Z" style="fill:#fff"></path></g><path d="M420,233a21,21,0,1,1-17.84-23.8A21,21,0,0,1,420,233Z" style="fill:#1E402D"></path><g style="opacity:0.2"><path d="M420,233a21,21,0,1,1-17.84-23.8A21,21,0,0,1,420,233Z"></path></g><path d="M420.51,234a20.75,20.75,0,1,1-17.61-23.48A20.76,20.76,0,0,1,420.51,234Z" style="fill:#1E402D"></path><g style="opacity:0.2"><path d="M420.51,234a20.75,20.75,0,1,1-17.61-23.48A20.76,20.76,0,0,1,420.51,234Z" style="fill:#fff"></path></g><path d="M401,229.35l.75-5.25h0a11.2,11.2,0,0,1,2.68,1.13,9.3,9.3,0,0,1,1.2,1l.09-.15,1.08-1.78.25-.4-.8-1.12-.48.14a9.94,9.94,0,0,0-3.65-1.65l.42-2.89-.8-.85-.1.72-1.24-.17-.42,2.94c-4.12-.19-6.38,1.85-6.76,4.51-.51,3.62,2.45,5,5.24,6.11l-.74,5.21a10.17,10.17,0,0,1-4.93-2.72l-1.55,2.46a11.55,11.55,0,0,0,6.07,3.07l-.31,2.18-1-.12.92.83,2.14.31.41-2.92c4.15.17,6.43-1.84,6.81-4.5C406.85,231.83,403.83,230.47,401,229.35ZM399,228.5c-1.45-.66-2.48-1.39-2.3-2.64s1.08-2,3-2Zm2.81-4.4Zm-1.86,13,.66-4.6c1.5.66,2.56,1.42,2.37,2.7C402.8,236.33,401.87,237.1,399.93,237.11Z" style="fill:#1E402D"></path><g style="opacity:0.30000000000000004"><path d="M401,229.35l.75-5.25h0a11.2,11.2,0,0,1,2.68,1.13,9.3,9.3,0,0,1,1.2,1l.09-.15,1.08-1.78.25-.4-.8-1.12-.48.14a9.94,9.94,0,0,0-3.65-1.65l.42-2.89-.8-.85-.1.72-1.24-.17-.42,2.94c-4.12-.19-6.38,1.85-6.76,4.51-.51,3.62,2.45,5,5.24,6.11l-.74,5.21a10.17,10.17,0,0,1-4.93-2.72l-1.55,2.46a11.55,11.55,0,0,0,6.07,3.07l-.31,2.18-1-.12.92.83,2.14.31.41-2.92c4.15.17,6.43-1.84,6.81-4.5C406.85,231.83,403.83,230.47,401,229.35ZM399,228.5c-1.45-.66-2.48-1.39-2.3-2.64s1.08-2,3-2Zm2.81-4.4Zm-1.86,13,.66-4.6c1.5.66,2.56,1.42,2.37,2.7C402.8,236.33,401.87,237.1,399.93,237.11Z"></path></g><path d="M398.74,239.11l-.42,2.92-2.13-.31.41-2.89a11.55,11.55,0,0,1-6.07-3.07l1.55-2.46A10.18,10.18,0,0,0,397,236l.75-5.21c-2.79-1.11-5.75-2.5-5.24-6.12.38-2.65,2.64-4.69,6.76-4.5l.42-2.95,2.14.31-.42,2.89a11.14,11.14,0,0,1,5.06,2.35L405,225.26a11.09,11.09,0,0,0-4-2l-.75,5.26c2.79,1.12,5.81,2.48,5.29,6.1C405.17,237.27,402.89,239.28,398.74,239.11Zm-.54-11.45.66-4.63c-1.89,0-2.8.84-3,2S396.75,227,398.2,227.66Zm4,6.71c.19-1.28-.87-2-2.37-2.71l-.66,4.61C401.09,236.26,402,235.49,402.18,234.37Z" style="fill:#1E402D"></path><path d="M396.62,251.71s.06,0,.17,0l.5,0,.81.06a7.6,7.6,0,0,0,1.11.05l1.39,0a5.59,5.59,0,0,0,.8-.06l.85-.1c.29,0,.6-.05.91-.12l1-.21a9.73,9.73,0,0,0,1-.23l1-.33a22.43,22.43,0,0,0,4.43-2l1.1-.75.57-.39.54-.44c.35-.3.73-.59,1.08-.92l1-1,.27-.26c.08-.09.15-.19.23-.29l.48-.58.49-.59a7.07,7.07,0,0,0,.44-.63c.28-.43.59-.85.86-1.3l.76-1.4a20.9,20.9,0,0,0,1.85-12.93c-.12-.52-.23-1-.34-1.56s-.31-1-.46-1.49a6.28,6.28,0,0,0-.25-.73l-.3-.7c-.09-.23-.19-.46-.29-.69l-.15-.34-.18-.33-.7-1.28c-.25-.41-.53-.79-.79-1.18l-.39-.58-.43-.53-.85-1a22.48,22.48,0,0,0-3.68-3.19l-.91-.61c-.3-.19-.61-.34-.9-.5l-.87-.47a7.68,7.68,0,0,0-.84-.37l-.79-.34a7.44,7.44,0,0,0-.74-.28l-1.33-.41a8.31,8.31,0,0,0-1.08-.26l-.8-.17-.49-.1-.16-.05.17,0,.49.08.8.15a6.92,6.92,0,0,1,1.09.25l1.34.39a6.19,6.19,0,0,1,.75.27l.8.33a8.77,8.77,0,0,1,.85.37l.87.46c.29.17.61.31.91.5l.92.61a22.28,22.28,0,0,1,3.72,3.2l.87,1c.14.18.3.35.44.54l.39.58c.26.39.55.77.8,1.19l.71,1.29.18.32c.06.12.1.23.15.35l.3.7.31.7c.11.24.16.49.25.74.15.49.33,1,.47,1.5l.33,1.58a22.17,22.17,0,0,1,.13,6.67,23,23,0,0,1-2,6.38l-.77,1.41c-.27.46-.58.88-.87,1.32a7.17,7.17,0,0,1-.45.63c-.16.2-.32.4-.49.59l-.48.59-.24.29-.27.26-1,1c-.36.33-.74.62-1.1.92l-.54.44c-.19.14-.39.26-.57.39l-1.12.76a22.32,22.32,0,0,1-4.47,2l-1.05.33c-.35.1-.69.15-1,.22l-1,.2c-.31.07-.62.08-.92.12l-.85.09a7.47,7.47,0,0,1-.8.05h-1.4a6.22,6.22,0,0,1-1.11-.07l-.81-.08-.5-.06Z" style="fill:#263238"></path><path d="M374.43,240a1.17,1.17,0,0,1-.1-.23l-.24-.67c-.1-.29-.22-.65-.33-1.08s-.27-.91-.37-1.45c-.06-.28-.12-.56-.18-.86s-.1-.61-.15-.93c-.12-.65-.17-1.35-.24-2.08a27.12,27.12,0,0,1,1-9.48c.21-.71.41-1.38.65-2,.12-.3.22-.6.34-.88l.35-.8c.21-.52.46-1,.66-1.35a8.41,8.41,0,0,1,.55-1l.37-.61.14-.21s0,.08-.1.23l-.34.63a10,10,0,0,0-.52,1c-.19.4-.43.84-.63,1.36l-.34.8c-.11.27-.21.57-.32.88-.23.61-.42,1.28-.63,2a30.54,30.54,0,0,0-.88,4.67,31.91,31.91,0,0,0-.09,4.75c.06.73.11,1.42.22,2.06,0,.32.08.64.13.93s.12.58.17.85c.09.55.23,1,.34,1.46s.21.79.3,1.09l.2.68A.78.78,0,0,1,374.43,240Z" style="fill:#fff"></path><path d="M394,227.13a1.92,1.92,0,0,1-.52-.69,3.33,3.33,0,0,1-.3-2.05,3.24,3.24,0,0,1,1-1.82,1.79,1.79,0,0,1,.72-.47s-.26.19-.62.57a3.38,3.38,0,0,0-.67,3.71C393.8,226.85,394,227.11,394,227.13Z" style="fill:#fff"></path><path d="M399.77,219.82a2,2,0,0,1,0-.87c.07-.47.17-.85.23-.84a2.14,2.14,0,0,1,0,.87C399.93,219.45,399.83,219.83,399.77,219.82Z" style="fill:#fff"></path><path d="M404.16,208.94a5.22,5.22,0,0,1-.67-.12,7.54,7.54,0,0,0-.77-.15c-.31,0-.65-.12-1-.16s-.8-.11-1.26-.13-.94,0-1.45-.06a21.83,21.83,0,0,0-6.56,1c-.49.16-1,.31-1.38.48s-.81.33-1.17.49-.66.31-.94.45-.51.26-.7.37a4.59,4.59,0,0,1-.6.31,3,3,0,0,1,.56-.38,6.41,6.41,0,0,1,.69-.4c.27-.15.58-.33.93-.49s.74-.35,1.17-.51.89-.33,1.38-.5a23.5,23.5,0,0,1,3.27-.76,22.06,22.06,0,0,1,3.35-.21c.52,0,1,0,1.47.08s.88.09,1.26.15.74.13,1,.19.56.13.77.19Z" style="fill:#fff"></path><path d="M399.21,257a2.33,2.33,0,0,1-.5.06,13.54,13.54,0,0,1-1.4,0,19.89,19.89,0,0,1-8.85-2.21c-.52-.27-.93-.51-1.21-.69a2.8,2.8,0,0,1-.41-.29,3.1,3.1,0,0,1,.45.22c.29.16.71.38,1.24.63a22.35,22.35,0,0,0,4.28,1.55,23.19,23.19,0,0,0,4.51.65c.58,0,1.06,0,1.38,0A2.91,2.91,0,0,1,399.21,257Z" style="fill:#fff"></path><path d="M427,234.44s0-.15,0-.45.1-.73.13-1.31a28.33,28.33,0,0,0-.08-5.05,27.23,27.23,0,0,0-.63-3.59,26.14,26.14,0,0,0-1.36-4.13,27.89,27.89,0,0,0-5.83-8.75,27.54,27.54,0,0,0-10.78-6.75,27.71,27.71,0,0,0-7-1.39,27.3,27.3,0,0,0-3.73,0,27.5,27.5,0,0,0-17.85,8.22,26.86,26.86,0,0,0-2.74,3.26,25.69,25.69,0,0,0-2.23,3.71,27.56,27.56,0,0,0-2.47,17.23c.12.72.3,1.42.46,2.13s.4,1.38.64,2.06a26.68,26.68,0,0,0,1.72,3.9,27.63,27.63,0,0,0,11.32,11.33,28.76,28.76,0,0,0,3.51,1.57,26.35,26.35,0,0,0,3.58,1,27,27,0,0,0,7.1.62,26.7,26.7,0,0,0,6.56-1.08,27,27,0,0,0,5.67-2.37,27.94,27.94,0,0,0,8.06-6.77,26,26,0,0,0,2.45-3.58,27.39,27.39,0,0,0,1.62-3.27,27.92,27.92,0,0,0,1.49-4.83c.13-.56.19-1,.25-1.29s.08-.44.08-.44-.07.61-.29,1.74a26.8,26.8,0,0,1-1.46,4.85,25.19,25.19,0,0,1-1.6,3.29,26.74,26.74,0,0,1-2.45,3.6,28,28,0,0,1-8.08,6.83,27.89,27.89,0,0,1-12.3,3.5,27.81,27.81,0,0,1-7.14-.62,26.8,26.8,0,0,1-3.61-1,28.9,28.9,0,0,1-3.52-1.57,27.85,27.85,0,0,1-13.15-15.34c-.25-.67-.44-1.37-.64-2.07s-.35-1.42-.47-2.14a27.81,27.81,0,0,1-.17-8.88,28.23,28.23,0,0,1,2.65-8.48,25,25,0,0,1,2.26-3.73,26.48,26.48,0,0,1,2.75-3.29,27.91,27.91,0,0,1,14.16-7.75,29.92,29.92,0,0,1,3.82-.52,28.43,28.43,0,0,1,10.79,1.43,26.93,26.93,0,0,1,6,2.91,27.36,27.36,0,0,1,4.79,3.89,28,28,0,0,1,5.84,8.82,28.06,28.06,0,0,1,2,7.75,26.89,26.89,0,0,1,0,5.07C427.08,233.84,427,234.44,427,234.44Z" style="fill:#263238"></path><rect x="331.33" y="379.18" width="70.28" height="12.76" transform="translate(732.95 771.11) rotate(180)" style="fill:#1E402D"></rect><path d="M394.73,392a69.23,69.23,0,0,0,0-12.66c-.17,0-.3,2.83-.3,6.33S394.56,392,394.73,392Z" style="fill:#263238"></path><path d="M398.57,392a69.23,69.23,0,0,0,0-12.66,69.23,69.23,0,0,0,0,12.66Z" style="fill:#263238"></path><path d="M386.28,392a69.23,69.23,0,0,0,0-12.66,69.23,69.23,0,0,0,0,12.66Z" style="fill:#263238"></path><path d="M390.13,392a69.23,69.23,0,0,0,0-12.66c-.17,0-.3,2.83-.3,6.33S390,392,390.13,392Z" style="fill:#263238"></path><path d="M377.84,392a69.23,69.23,0,0,0,0-12.66,66.93,66.93,0,0,0,0,12.66Z" style="fill:#263238"></path><path d="M381.68,392a69.23,69.23,0,0,0,0-12.66,69.23,69.23,0,0,0,0,12.66Z" style="fill:#263238"></path><path d="M369.39,392a66.93,66.93,0,0,0,0-12.66,69.23,69.23,0,0,0,0,12.66Z" style="fill:#263238"></path><path d="M373.24,392a69.23,69.23,0,0,0,0-12.66,66.93,66.93,0,0,0,0,12.66Z" style="fill:#263238"></path><path d="M361,392a69.23,69.23,0,0,0,0-12.66A69.23,69.23,0,0,0,361,392Z" style="fill:#263238"></path><path d="M364.79,392a66.93,66.93,0,0,0,0-12.66,69.23,69.23,0,0,0,0,12.66Z" style="fill:#263238"></path><path d="M352.5,392c.17,0,.3-2.84.3-6.33s-.13-6.33-.3-6.33a69.23,69.23,0,0,0,0,12.66Z" style="fill:#263238"></path><path d="M356.35,392a69.23,69.23,0,0,0,0-12.66,69.23,69.23,0,0,0,0,12.66Z" style="fill:#263238"></path><path d="M344.06,392a69.23,69.23,0,0,0,0-12.66,69.23,69.23,0,0,0,0,12.66Z" style="fill:#263238"></path><path d="M347.9,392c.17,0,.3-2.84.3-6.33s-.13-6.33-.3-6.33a69.23,69.23,0,0,0,0,12.66Z" style="fill:#263238"></path><path d="M335.62,392a69.23,69.23,0,0,0,0-12.66c-.17,0-.3,2.83-.3,6.33S335.45,392,335.62,392Z" style="fill:#263238"></path><path d="M339.46,392a69.23,69.23,0,0,0,0-12.66,69.23,69.23,0,0,0,0,12.66Z" style="fill:#263238"></path><path d="M331.33,379.18c0,.16,15.81.29,35.3.29s35.31-.13,35.31-.29-15.8-.3-35.31-.3S331.33,379,331.33,379.18Z" style="fill:#263238"></path><rect x="335.93" y="392.14" width="70.28" height="12.76" transform="translate(742.15 797.04) rotate(180)" style="fill:#1E402D"></rect><path d="M399.33,405a69.23,69.23,0,0,0,0-12.66c-.17,0-.3,2.83-.3,6.33S399.16,405,399.33,405Z" style="fill:#263238"></path><path d="M403.17,405a69.23,69.23,0,0,0,0-12.66,69.23,69.23,0,0,0,0,12.66Z" style="fill:#263238"></path><path d="M390.88,405a69.23,69.23,0,0,0,0-12.66,69.23,69.23,0,0,0,0,12.66Z" style="fill:#263238"></path><path d="M394.73,405a69.23,69.23,0,0,0,0-12.66c-.17,0-.3,2.83-.3,6.33S394.56,405,394.73,405Z" style="fill:#263238"></path><path d="M382.44,405a69.23,69.23,0,0,0,0-12.66,66.93,66.93,0,0,0,0,12.66Z" style="fill:#263238"></path><path d="M386.28,405a69.23,69.23,0,0,0,0-12.66,69.23,69.23,0,0,0,0,12.66Z" style="fill:#263238"></path><path d="M374,405a66.93,66.93,0,0,0,0-12.66A69.23,69.23,0,0,0,374,405Z" style="fill:#263238"></path><path d="M377.84,405a69.23,69.23,0,0,0,0-12.66,66.93,66.93,0,0,0,0,12.66Z" style="fill:#263238"></path><path d="M365.55,405a69.23,69.23,0,0,0,0-12.66,69.23,69.23,0,0,0,0,12.66Z" style="fill:#263238"></path><path d="M369.39,405a66.93,66.93,0,0,0,0-12.66,69.23,69.23,0,0,0,0,12.66Z" style="fill:#263238"></path><path d="M357.1,405c.17,0,.3-2.84.3-6.33s-.13-6.33-.3-6.33a69.23,69.23,0,0,0,0,12.66Z" style="fill:#263238"></path><path d="M361,405a69.23,69.23,0,0,0,0-12.66A69.23,69.23,0,0,0,361,405Z" style="fill:#263238"></path><path d="M348.66,405a69.23,69.23,0,0,0,0-12.66,69.23,69.23,0,0,0,0,12.66Z" style="fill:#263238"></path><path d="M352.5,405c.17,0,.3-2.84.3-6.33s-.13-6.33-.3-6.33a69.23,69.23,0,0,0,0,12.66Z" style="fill:#263238"></path><path d="M340.22,405a69.23,69.23,0,0,0,0-12.66c-.17,0-.3,2.83-.3,6.33S340.05,405,340.22,405Z" style="fill:#263238"></path><path d="M344.06,405a69.23,69.23,0,0,0,0-12.66,69.23,69.23,0,0,0,0,12.66Z" style="fill:#263238"></path><path d="M335.93,392.14c0,.16,15.81.29,35.3.29s35.31-.13,35.31-.29-15.8-.29-35.31-.29S335.93,392,335.93,392.14Z" style="fill:#263238"></path><rect x="330.19" y="404.99" width="70.28" height="12.76" transform="translate(730.66 822.74) rotate(180)" style="fill:#1E402D"></rect><path d="M393.58,417.84a66.93,66.93,0,0,0,0-12.66,69.23,69.23,0,0,0,0,12.66Z" style="fill:#263238"></path><path d="M397.43,417.84a69.23,69.23,0,0,0,0-12.66,66.93,66.93,0,0,0,0,12.66Z" style="fill:#263238"></path><path d="M385.14,417.84a69.23,69.23,0,0,0,0-12.66,69.23,69.23,0,0,0,0,12.66Z" style="fill:#263238"></path><path d="M389,417.84a66.93,66.93,0,0,0,0-12.66,69.23,69.23,0,0,0,0,12.66Z" style="fill:#263238"></path><path d="M376.69,417.84c.17,0,.3-2.83.3-6.33s-.13-6.33-.3-6.33a69.23,69.23,0,0,0,0,12.66Z" style="fill:#263238"></path><path d="M380.54,417.84a69.23,69.23,0,0,0,0-12.66,69.23,69.23,0,0,0,0,12.66Z" style="fill:#263238"></path><path d="M368.25,417.84a69.23,69.23,0,0,0,0-12.66,69.23,69.23,0,0,0,0,12.66Z" style="fill:#263238"></path><path d="M372.09,417.84c.17,0,.3-2.83.3-6.33s-.13-6.33-.3-6.33a69.23,69.23,0,0,0,0,12.66Z" style="fill:#263238"></path><path d="M359.81,417.84a69.23,69.23,0,0,0,0-12.66c-.17,0-.3,2.83-.3,6.33S359.64,417.84,359.81,417.84Z" style="fill:#263238"></path><path d="M363.65,417.84a69.23,69.23,0,0,0,0-12.66,69.23,69.23,0,0,0,0,12.66Z" style="fill:#263238"></path><path d="M351.36,417.84a69.23,69.23,0,0,0,0-12.66,69.23,69.23,0,0,0,0,12.66Z" style="fill:#263238"></path><path d="M355.21,417.84a69.23,69.23,0,0,0,0-12.66c-.17,0-.3,2.83-.3,6.33S355,417.84,355.21,417.84Z" style="fill:#263238"></path><path d="M342.92,417.84a69.23,69.23,0,0,0,0-12.66,66.93,66.93,0,0,0,0,12.66Z" style="fill:#263238"></path><path d="M346.76,417.84a69.23,69.23,0,0,0,0-12.66,69.23,69.23,0,0,0,0,12.66Z" style="fill:#263238"></path><path d="M334.47,417.84a66.93,66.93,0,0,0,0-12.66,69.23,69.23,0,0,0,0,12.66Z" style="fill:#263238"></path><path d="M338.32,417.84a69.23,69.23,0,0,0,0-12.66,66.93,66.93,0,0,0,0,12.66Z" style="fill:#263238"></path><path d="M330.19,405c0,.16,15.85.29,35.39.29S401,405.15,401,405s-15.84-.29-35.38-.29S330.19,404.83,330.19,405Z" style="fill:#263238"></path><rect x="335.7" y="417.65" width="70.28" height="12.76" transform="translate(741.68 848.06) rotate(180)" style="fill:#1E402D"></rect><path d="M399.09,430.5a69.23,69.23,0,0,0,0-12.66,69.23,69.23,0,0,0,0,12.66Z" style="fill:#263238"></path><path d="M402.94,430.5a69.23,69.23,0,0,0,0-12.66c-.17,0-.3,2.83-.3,6.33S402.77,430.5,402.94,430.5Z" style="fill:#263238"></path><path d="M390.65,430.5a69.23,69.23,0,0,0,0-12.66,66.93,66.93,0,0,0,0,12.66Z" style="fill:#263238"></path><path d="M394.49,430.5a69.23,69.23,0,0,0,0-12.66,69.23,69.23,0,0,0,0,12.66Z" style="fill:#263238"></path><path d="M382.2,430.5a66.93,66.93,0,0,0,0-12.66,69.23,69.23,0,0,0,0,12.66Z" style="fill:#263238"></path><path d="M386.05,430.5a69.23,69.23,0,0,0,0-12.66,66.93,66.93,0,0,0,0,12.66Z" style="fill:#263238"></path><path d="M373.76,430.5a69.23,69.23,0,0,0,0-12.66,69.23,69.23,0,0,0,0,12.66Z" style="fill:#263238"></path><path d="M377.6,430.5a66.93,66.93,0,0,0,0-12.66,69.23,69.23,0,0,0,0,12.66Z" style="fill:#263238"></path><path d="M365.31,430.5c.17,0,.3-2.83.3-6.33s-.13-6.33-.3-6.33a69.23,69.23,0,0,0,0,12.66Z" style="fill:#263238"></path><path d="M369.16,430.5a69.23,69.23,0,0,0,0-12.66,69.23,69.23,0,0,0,0,12.66Z" style="fill:#263238"></path><path d="M356.87,430.5a69.23,69.23,0,0,0,0-12.66,69.23,69.23,0,0,0,0,12.66Z" style="fill:#263238"></path><path d="M360.71,430.5c.17,0,.3-2.83.3-6.33s-.13-6.33-.3-6.33a69.23,69.23,0,0,0,0,12.66Z" style="fill:#263238"></path><path d="M348.43,430.5a69.23,69.23,0,0,0,0-12.66c-.17,0-.3,2.83-.3,6.33S348.26,430.5,348.43,430.5Z" style="fill:#263238"></path><path d="M352.27,430.5a69.23,69.23,0,0,0,0-12.66,69.23,69.23,0,0,0,0,12.66Z" style="fill:#263238"></path><path d="M340,430.5a69.23,69.23,0,0,0,0-12.66,69.23,69.23,0,0,0,0,12.66Z" style="fill:#263238"></path><path d="M343.83,430.5a69.23,69.23,0,0,0,0-12.66c-.17,0-.3,2.83-.3,6.33S343.66,430.5,343.83,430.5Z" style="fill:#263238"></path><path d="M335.7,417.65c0,.16,15.81.29,35.3.29s35.3-.13,35.3-.29-15.8-.29-35.3-.29S335.7,417.49,335.7,417.65Z" style="fill:#263238"></path><rect x="328.66" y="430.6" width="70.28" height="12.76" transform="translate(727.59 873.95) rotate(180)" style="fill:#1E402D"></rect><path d="M392.05,443.45a69.34,69.34,0,0,0,0-12.67,69.34,69.34,0,0,0,0,12.67Z" style="fill:#263238"></path><path d="M395.89,443.45a67,67,0,0,0,0-12.67,69.34,69.34,0,0,0,0,12.67Z" style="fill:#263238"></path><path d="M383.6,443.45c.17,0,.3-2.84.3-6.33s-.13-6.34-.3-6.34a69.34,69.34,0,0,0,0,12.67Z" style="fill:#263238"></path><path d="M387.45,443.45a69.34,69.34,0,0,0,0-12.67,69.34,69.34,0,0,0,0,12.67Z" style="fill:#263238"></path><path d="M375.16,443.45a69.34,69.34,0,0,0,0-12.67,69.34,69.34,0,0,0,0,12.67Z" style="fill:#263238"></path><path d="M379,443.45c.17,0,.3-2.84.3-6.33s-.13-6.34-.3-6.34a69.34,69.34,0,0,0,0,12.67Z" style="fill:#263238"></path><path d="M366.72,443.45a69.34,69.34,0,0,0,0-12.67c-.17,0-.3,2.84-.3,6.34S366.55,443.45,366.72,443.45Z" style="fill:#263238"></path><path d="M370.56,443.45a69.34,69.34,0,0,0,0-12.67,69.34,69.34,0,0,0,0,12.67Z" style="fill:#263238"></path><path d="M358.27,443.45a69.34,69.34,0,0,0,0-12.67,69.34,69.34,0,0,0,0,12.67Z" style="fill:#263238"></path><path d="M362.12,443.45a69.34,69.34,0,0,0,0-12.67c-.17,0-.3,2.84-.3,6.34S362,443.45,362.12,443.45Z" style="fill:#263238"></path><path d="M349.83,443.45a69.34,69.34,0,0,0,0-12.67,67,67,0,0,0,0,12.67Z" style="fill:#263238"></path><path d="M353.67,443.45a69.34,69.34,0,0,0,0-12.67,69.34,69.34,0,0,0,0,12.67Z" style="fill:#263238"></path><path d="M341.38,443.45a67,67,0,0,0,0-12.67,69.34,69.34,0,0,0,0,12.67Z" style="fill:#263238"></path><path d="M345.23,443.45a69.34,69.34,0,0,0,0-12.67,67,67,0,0,0,0,12.67Z" style="fill:#263238"></path><path d="M332.94,443.45a69.34,69.34,0,0,0,0-12.67,69.34,69.34,0,0,0,0,12.67Z" style="fill:#263238"></path><path d="M336.78,443.45a67,67,0,0,0,0-12.67,69.34,69.34,0,0,0,0,12.67Z" style="fill:#263238"></path><path d="M328.66,430.59c0,.17,15.8.3,35.3.3s35.3-.13,35.3-.3-15.8-.29-35.3-.29S328.66,430.43,328.66,430.59Z" style="fill:#263238"></path><rect x="333.06" y="443.5" width="70.28" height="12.76" transform="translate(736.41 899.77) rotate(180)" style="fill:#1E402D"></rect><path d="M396.46,456.35a69.23,69.23,0,0,0,0-12.66c-.17,0-.3,2.84-.3,6.33S396.29,456.35,396.46,456.35Z" style="fill:#263238"></path><path d="M400.3,456.35a69.23,69.23,0,0,0,0-12.66,69.23,69.23,0,0,0,0,12.66Z" style="fill:#263238"></path><path d="M388,456.35a69.23,69.23,0,0,0,0-12.66,69.23,69.23,0,0,0,0,12.66Z" style="fill:#263238"></path><path d="M391.86,456.35a69.23,69.23,0,0,0,0-12.66c-.17,0-.3,2.84-.3,6.33S391.69,456.35,391.86,456.35Z" style="fill:#263238"></path><path d="M379.57,456.35a69.23,69.23,0,0,0,0-12.66,66.93,66.93,0,0,0,0,12.66Z" style="fill:#263238"></path><path d="M383.41,456.35a69.23,69.23,0,0,0,0-12.66,69.23,69.23,0,0,0,0,12.66Z" style="fill:#263238"></path><path d="M371.12,456.35a69.23,69.23,0,0,0,0-12.66,69.23,69.23,0,0,0,0,12.66Z" style="fill:#263238"></path><path d="M375,456.35a69.23,69.23,0,0,0,0-12.66c-.17,0-.3,2.84-.3,6.33S374.8,456.35,375,456.35Z" style="fill:#263238"></path><path d="M362.68,456.35a69.23,69.23,0,0,0,0-12.66,69.23,69.23,0,0,0,0,12.66Z" style="fill:#263238"></path><path d="M366.52,456.35a69.23,69.23,0,0,0,0-12.66,69.23,69.23,0,0,0,0,12.66Z" style="fill:#263238"></path><path d="M354.23,456.35c.17,0,.3-2.83.3-6.33s-.13-6.33-.3-6.33a69.23,69.23,0,0,0,0,12.66Z" style="fill:#263238"></path><path d="M358.08,456.35a69.23,69.23,0,0,0,0-12.66,69.23,69.23,0,0,0,0,12.66Z" style="fill:#263238"></path><path d="M345.79,456.35a69.23,69.23,0,0,0,0-12.66,69.23,69.23,0,0,0,0,12.66Z" style="fill:#263238"></path><path d="M349.63,456.35a66.93,66.93,0,0,0,0-12.66,69.23,69.23,0,0,0,0,12.66Z" style="fill:#263238"></path><path d="M337.35,456.35a69.23,69.23,0,0,0,0-12.66c-.17,0-.3,2.84-.3,6.33S337.18,456.35,337.35,456.35Z" style="fill:#263238"></path><path d="M341.19,456.35a69.23,69.23,0,0,0,0-12.66,69.23,69.23,0,0,0,0,12.66Z" style="fill:#263238"></path><path d="M333.06,443.5c0,.17,15.85.3,35.39.3s35.39-.13,35.39-.3-15.84-.29-35.39-.29S333.06,443.34,333.06,443.5Z" style="fill:#263238"></path><rect x="338.57" y="456.16" width="70.28" height="12.76" transform="translate(747.42 925.09) rotate(180)" style="fill:#1E402D"></rect><path d="M402,469c.17,0,.3-2.83.3-6.33s-.13-6.33-.3-6.33A69.23,69.23,0,0,0,402,469Z" style="fill:#263238"></path><path d="M405.81,469a69.23,69.23,0,0,0,0-12.66,69.23,69.23,0,0,0,0,12.66Z" style="fill:#263238"></path><path d="M393.52,469a69.23,69.23,0,0,0,0-12.66,69.23,69.23,0,0,0,0,12.66Z" style="fill:#263238"></path><path d="M397.36,469c.17,0,.3-2.83.3-6.33s-.13-6.33-.3-6.33a69.23,69.23,0,0,0,0,12.66Z" style="fill:#263238"></path><path d="M385.08,469a69.23,69.23,0,0,0,0-12.66c-.17,0-.3,2.84-.3,6.33S384.91,469,385.08,469Z" style="fill:#263238"></path><path d="M388.92,469a69.23,69.23,0,0,0,0-12.66,69.23,69.23,0,0,0,0,12.66Z" style="fill:#263238"></path><path d="M376.63,469a69.23,69.23,0,0,0,0-12.66,69.23,69.23,0,0,0,0,12.66Z" style="fill:#263238"></path><path d="M380.48,469a69.23,69.23,0,0,0,0-12.66c-.17,0-.3,2.84-.3,6.33S380.31,469,380.48,469Z" style="fill:#263238"></path><path d="M368.19,469a69.23,69.23,0,0,0,0-12.66,66.93,66.93,0,0,0,0,12.66Z" style="fill:#263238"></path><path d="M372,469a69.23,69.23,0,0,0,0-12.66A69.23,69.23,0,0,0,372,469Z" style="fill:#263238"></path><path d="M359.74,469a66.93,66.93,0,0,0,0-12.66,69.23,69.23,0,0,0,0,12.66Z" style="fill:#263238"></path><path d="M363.59,469a69.23,69.23,0,0,0,0-12.66,66.93,66.93,0,0,0,0,12.66Z" style="fill:#263238"></path><path d="M351.3,469a69.23,69.23,0,0,0,0-12.66,69.23,69.23,0,0,0,0,12.66Z" style="fill:#263238"></path><path d="M355.14,469a66.93,66.93,0,0,0,0-12.66,69.23,69.23,0,0,0,0,12.66Z" style="fill:#263238"></path><path d="M342.85,469c.17,0,.3-2.83.3-6.33s-.13-6.33-.3-6.33a69.23,69.23,0,0,0,0,12.66Z" style="fill:#263238"></path><path d="M346.7,469a69.23,69.23,0,0,0,0-12.66,69.23,69.23,0,0,0,0,12.66Z" style="fill:#263238"></path><path d="M338.57,456.16c0,.17,15.81.3,35.3.3s35.31-.13,35.31-.3-15.81-.29-35.31-.29S338.57,456,338.57,456.16Z" style="fill:#263238"></path><g style="opacity:0.30000000000000004"><path d="M400.47,405A107.28,107.28,0,0,1,368,407.35c-10.78-.72-21.67-2.3-32.48-2.17Z"></path></g><g style="opacity:0.30000000000000004"><path d="M399.84,392.29a107.6,107.6,0,0,1-32.47,2.36c-10.78-.72-21.67-2.31-32.48-2.17Z"></path></g><g style="opacity:0.30000000000000004"><path d="M396.43,417.78A107.21,107.21,0,0,1,364,420.14c-10.79-.72-21.68-2.3-32.48-2.17Z"></path></g><g style="opacity:0.30000000000000004"><path d="M399.19,430.52a107.28,107.28,0,0,1-32.47,2.36c-10.78-.72-21.67-2.3-32.48-2.17Z"></path></g><g style="opacity:0.30000000000000004"><path d="M398.35,443.21a107.21,107.21,0,0,1-32.46,2.36c-10.79-.72-21.68-2.3-32.48-2.17Z"></path></g><g style="opacity:0.30000000000000004"><path d="M401.79,456.14a107.28,107.28,0,0,1-32.47,2.36c-10.78-.71-21.67-2.3-32.48-2.17Z"></path></g><path d="M400.32,387.9a20.45,20.45,0,0,0,0-7,21.15,21.15,0,0,0,0,7Z" style="fill:#fff"></path><path d="M404.76,401.54a24.39,24.39,0,0,0,0-7.5c-.17,0-.3,1.68-.3,3.75S404.59,401.54,404.76,401.54Z" style="fill:#fff"></path><path d="M398.45,414.67a19.21,19.21,0,0,0,0-6.65,19.21,19.21,0,0,0,0,6.65Z" style="fill:#fff"></path><path d="M404.93,426.77a15.51,15.51,0,0,0,0-6,15,15,0,0,0,0,6Z" style="fill:#fff"></path><path d="M379.19,393.19c0,.16,5.19.29,11.59.29s11.59-.13,11.59-.29-5.19-.29-11.59-.29S379.19,393,379.19,393.19Z" style="fill:#fff"></path><path d="M371.69,380.92c0,.16,5.23.29,11.67.29s11.68-.13,11.68-.29-5.23-.3-11.68-.3S371.69,380.75,371.69,380.92Z" style="fill:#fff"></path><path d="M360.44,381.09a25.5,25.5,0,0,0,7.67,0,24.66,24.66,0,0,0-7.67,0Z" style="fill:#fff"></path><path d="M397.94,442.9a56.81,56.81,0,0,0,0-9.76,54.23,54.23,0,0,0,0,9.76Z" style="fill:#fff"></path><path d="M344.53,429.09c0,.12,12.78.21,28.54.21s28.55-.09,28.55-.21-12.78-.22-28.55-.22S344.53,429,344.53,429.09Z" style="fill:#fff"></path><path d="M356,454.87c0,.12,10.1.21,22.56.21s22.56-.09,22.56-.21-10.1-.22-22.56-.22S356,454.75,356,454.87Z" style="fill:#fff"></path><path d="M407.88,466.47a18.31,18.31,0,0,0,0-5.53,17.49,17.49,0,0,0,0,5.53Z" style="fill:#fff"></path><path d="M358.16,467.57c0,.12,10.47.22,23.39.22s23.38-.1,23.38-.22-10.47-.21-23.38-.21S358.16,467.45,358.16,467.57Z" style="fill:#fff"></path><path d="M408.85,468.93a.72.72,0,0,0,0-.23c0-.19,0-.41,0-.68,0-.63,0-1.49.05-2.58,0-2.28,0-5.48.07-9.39v-.17h-.17l-5,0,.19.19c0-3.84,0-8.15,0-12.74v-.22h-4.86l.21.22c0-4.63,0-9,0-12.95l-.19.2,6.79,0h.17v-.17c0-3.88-.06-7.06-.08-9.31,0-1.08,0-1.93,0-2.56l0-.66a.6.6,0,0,0,0-.23.72.72,0,0,0,0,.23c0,.18,0,.4,0,.66,0,.63,0,1.48-.05,2.56,0,2.25,0,5.43-.07,9.31l.17-.17-6.79,0H399v.19c0,3.94,0,8.32,0,12.95v.21h4.87l-.22-.21c0,4.59,0,8.9,0,12.74v.19h.19l5-.07-.17-.17c0,3.91.06,7.11.08,9.39,0,1.09,0,1.95,0,2.58,0,.27,0,.49,0,.68A.6.6,0,0,0,408.85,468.93Z" style="fill:#263238"></path><path d="M327.08,284.62c6.83,8,17.76,9.81,24.4,4.12S358,272,351.14,264s-17.76-9.82-24.41-4.12S320.24,276.64,327.08,284.62Z" style="fill:#1E402D"></path><g style="opacity:0.2"><path d="M327.08,284.62c6.83,8,17.76,9.81,24.4,4.12S358,272,351.14,264s-17.76-9.82-24.41-4.12S320.24,276.64,327.08,284.62Z"></path></g><ellipse cx="341.44" cy="272.3" rx="15.85" ry="19.01" transform="translate(-95.01 287.79) rotate(-40.61)" style="fill:#1E402D"></ellipse><g style="opacity:0.1"><path d="M325.11,263.64a13.68,13.68,0,0,1,3.95-5.77c6.65-5.7,17.57-3.85,24.41,4.12a21.53,21.53,0,0,1,5,10.75,32.84,32.84,0,0,1-13.5,2.95,18.39,18.39,0,0,1-12.48-4.3C330.08,269.27,326.78,266.73,325.11,263.64Z" style="fill:#fff"></path></g><path d="M332.34,279.64c5.25,6.13,13.57,7.61,18.59,3.32s4.82-12.76-.43-18.88-13.58-7.61-18.6-3.31S327.08,273.52,332.34,279.64Z" style="fill:#1E402D"></path><g style="opacity:0.2"><path d="M332.34,279.64c5.25,6.13,13.57,7.61,18.59,3.32s4.82-12.76-.43-18.88-13.58-7.61-18.6-3.31S327.08,273.52,332.34,279.64Z"></path></g><path d="M332.13,280.29c5.12,6,13.21,7.45,18.07,3.29s4.64-12.39-.49-18.37-13.21-7.45-18.07-3.29S327,274.31,332.13,280.29Z" style="fill:#1E402D"></path><g style="opacity:0.2"><path d="M332.13,280.29c5.12,6,13.21,7.45,18.07,3.29s4.64-12.39-.49-18.37-13.21-7.45-18.07-3.29S327,274.31,332.13,280.29Z" style="fill:#fff"></path></g><path d="M339.19,277a3.7,3.7,0,0,0,5.14.68l1.36,1.6.93-.8.12-.75-.45.36-1-1.19a5.75,5.75,0,0,0,1.76-3.55l-1.75-1a5.1,5.1,0,0,1-1.33,3l-2.44-2.85c.93-1.46,1.83-3.13.14-5.1a3.68,3.68,0,0,0-5.12-.7l-1.37-1.61-.54.46-.34-.4,0,.73,1.35,1.58a4.83,4.83,0,0,0-1.14,2l-.29.06.06.88.28.17,1.24.73.11.07a4.93,4.93,0,0,1,.18-.94,5.12,5.12,0,0,1,.87-1.44h0l2.46,2.87C338.44,273.32,337.5,275,339.19,277Zm-1.33-8.73a1.66,1.66,0,0,1,2.26.31c.58.68.36,1.41-.09,2.22Zm-1,.75Zm3.85,6.87c-.6-.7-.38-1.45.09-2.28L343,276.1A1.64,1.64,0,0,1,340.75,275.86Z" style="fill:#1E402D"></path><g style="opacity:0.30000000000000004"><path d="M339.19,277a3.7,3.7,0,0,0,5.14.68l1.36,1.6.93-.8.12-.75-.45.36-1-1.19a5.75,5.75,0,0,0,1.76-3.55l-1.75-1a5.1,5.1,0,0,1-1.33,3l-2.44-2.85c.93-1.46,1.83-3.13.14-5.1a3.68,3.68,0,0,0-5.12-.7l-1.37-1.61-.54.46-.34-.4,0,.73,1.35,1.58a4.83,4.83,0,0,0-1.14,2l-.29.06.06.88.28.17,1.24.73.11.07a4.93,4.93,0,0,1,.18-.94,5.12,5.12,0,0,1,.87-1.44h0l2.46,2.87C338.44,273.32,337.5,275,339.19,277Zm-1.33-8.73a1.66,1.66,0,0,1,2.26.31c.58.68.36,1.41-.09,2.22Zm-1,.75Zm3.85,6.87c-.6-.7-.38-1.45.09-2.28L343,276.1A1.64,1.64,0,0,1,340.75,275.86Z"></path></g><path d="M339.24,276.25c-1.7-2-.75-3.65.17-5.11L337,268.27a5.39,5.39,0,0,0-1.18,2.34l-1.69-1a5.41,5.41,0,0,1,1.55-2.84l-1.35-1.58.92-.79,1.38,1.6a3.68,3.68,0,0,1,5.12.71c1.69,2,.78,3.64-.14,5.1l2.44,2.85a5.1,5.1,0,0,0,1.33-3l1.74,1a5.73,5.73,0,0,1-1.75,3.55l1.35,1.58-.93.8-1.36-1.6A3.7,3.7,0,0,1,339.24,276.25Zm3.81-.87-2.16-2.52c-.47.83-.69,1.58-.09,2.28A1.64,1.64,0,0,0,343.05,275.38Zm-2.89-7.55a1.66,1.66,0,0,0-2.25-.32l2.17,2.54C340.53,269.24,340.75,268.51,340.16,267.83Z" style="fill:#1E402D"></path><path d="M330.21,271.76s.07.42.21,1.18a14.23,14.23,0,0,0,1,3.07,15.52,15.52,0,0,0,2.64,4,16.08,16.08,0,0,0,2.1,1.89,14.89,14.89,0,0,0,2.6,1.55,16.15,16.15,0,0,0,5.64,1.51,9.28,9.28,0,0,0,4.65-.82,9.78,9.78,0,0,0,2.63-1.85c.27-.28.46-.5.6-.65s.22-.22.23-.21a2.71,2.71,0,0,1-.19.24c-.13.16-.31.4-.57.68a9,9,0,0,1-7.36,2.85,16.3,16.3,0,0,1-5.73-1.52,15.73,15.73,0,0,1-2.65-1.58,15.27,15.27,0,0,1-2.12-1.94,15,15,0,0,1-2.63-4.06,12.6,12.6,0,0,1-.92-3.14,6.33,6.33,0,0,1-.1-.88C330.21,271.87,330.21,271.76,330.21,271.76Z" style="fill:#263238"></path><path d="M335.43,285.39c0-.05.94.63,2.6,1.37l.66.28.73.26c.5.19,1.05.32,1.63.48a20.64,20.64,0,0,0,3.86.49,19.74,19.74,0,0,0,3.88-.34,14.71,14.71,0,0,0,1.65-.42l.74-.22.66-.26c1.69-.67,2.63-1.31,2.66-1.26a5.81,5.81,0,0,1-.66.44,7.78,7.78,0,0,1-.81.46,11.94,11.94,0,0,1-1.12.53l-.67.27c-.23.09-.48.16-.74.24a16.77,16.77,0,0,1-1.67.45A17.64,17.64,0,0,1,341,288a13.37,13.37,0,0,1-1.65-.51c-.25-.09-.5-.17-.73-.27l-.66-.3a9.31,9.31,0,0,1-1.1-.57,7,7,0,0,1-.79-.49A4.4,4.4,0,0,1,335.43,285.39Z" style="fill:#263238"></path><path d="M354.64,263.82s-.51-.64-1.36-1.61a22.9,22.9,0,0,0-3.75-3.4,23.57,23.57,0,0,0-4.4-2.49c-1.2-.51-2-.74-2-.78a2.47,2.47,0,0,1,.56.12c.35.1.85.26,1.46.5a20.08,20.08,0,0,1,4.49,2.45,20.43,20.43,0,0,1,3.73,3.48c.42.51.73.94.93,1.24A3.79,3.79,0,0,1,354.64,263.82Z" style="fill:#fff"></path><path d="M355.61,267.17a4.42,4.42,0,0,1-.93-1.13,4.35,4.35,0,0,1-.73-1.28,4.19,4.19,0,0,1,.93,1.13A4.35,4.35,0,0,1,355.61,267.17Z" style="fill:#fff"></path><path d="M330.11,264.66s.08-.16.26-.43a4.31,4.31,0,0,1,.35-.47,6,6,0,0,1,.51-.58,10.15,10.15,0,0,1,1.54-1.3,10.81,10.81,0,0,1,4.58-1.79,10.34,10.34,0,0,1,2-.09c.29,0,.54.06.77.08a5,5,0,0,1,.58.11,1.41,1.41,0,0,1,.47.14c0,.05-.7-.12-1.83-.15a11,11,0,0,0-2,.14,11.18,11.18,0,0,0-4.49,1.75,10.62,10.62,0,0,0-1.54,1.24C330.54,264.1,330.15,264.69,330.11,264.66Z" style="fill:#fff"></path><path d="M341,267.12c-.07,0-.28-.55-.9-.9a3.76,3.76,0,0,0-1.23-.35s.14-.1.4-.12a1.8,1.8,0,0,1,1.64,1C341,267,341,267.11,341,267.12Z" style="fill:#fff"></path><path d="M347.15,272.93c-.06,0-.09-.14-.18-.24s-.19-.14-.21-.21,0-.07.12-.08a.33.33,0,0,1,.28.13.35.35,0,0,1,.09.29C347.23,272.9,347.18,272.94,347.15,272.93Z" style="fill:#fff"></path><path d="M411.42,312.62c-6.93-1.57-17.58-.05-28.78,4.2S362.48,327,358.33,332.77l-4.79,1.82,2.73,7.19c3,7.8,19.39,8.79,36.69,2.22s28.94-18.21,26-26l-2.73-7.2Z" style="fill:#1E402D"></path><g style="opacity:0.30000000000000004"><path d="M411.42,312.62c-6.93-1.57-17.58-.05-28.78,4.2S362.48,327,358.33,332.77l-4.79,1.82,2.73,7.19c3,7.8,19.39,8.79,36.69,2.22s28.94-18.21,26-26l-2.73-7.2Z"></path></g><path d="M390.42,337.32c-17.3,6.56-33.72,5.58-36.68-2.21s8.68-19.43,26-26,33.73-5.59,36.69,2.2S407.73,330.75,390.42,337.32Z" style="fill:#1E402D"></path><g style="opacity:0.1"><path d="M368.68,325.17a73.4,73.4,0,0,0,10.38-.19c12.18-1.51,23.5-8.76,29.23-19.45-7.05-1.7-17.63-.57-28.57,3.59-10.47,4-18.86,9.8-23.2,15.51C360.57,324.93,364.62,325.09,368.68,325.17Z" style="fill:#fff"></path></g><path d="M388.84,331.39c-13.3,5-25,6.55-27,1.32-2.11-5.55,6.52-15.22,19.82-20.27s25.69-4.9,27.67.33c.49,1.29,1,2.68-.31,5.79C406.9,323.46,398.88,327.58,388.84,331.39Z" style="fill:#1E402D"></path><g style="opacity:0.30000000000000004"><path d="M388.84,331.39c-13.3,5-25,6.55-27,1.32-2.11-5.55,6.52-15.22,19.82-20.27s25.69-4.9,27.67.33c.49,1.29,1,2.68-.31,5.79C406.9,323.46,398.88,327.58,388.84,331.39Z"></path></g><path d="M389.08,333.77c-13,4.92-25.11,4.68-27.1-.55s6.93-13.47,19.91-18.4,25.11-4.67,27.09.56S402.06,328.84,389.08,333.77Z" style="fill:#1E402D"></path><g style="opacity:0.2"><path d="M389.08,333.77c-13,4.92-25.11,4.68-27.1-.55s6.93-13.47,19.91-18.4,25.11-4.67,27.09.56S402.06,328.84,389.08,333.77Z" style="fill:#fff"></path></g><path d="M388.14,324.16l5.75-2.27h0a5.55,5.55,0,0,1-.07,2.17,6.4,6.4,0,0,1-.56,1.22l.2,0,2.28-.28.53-.07.83-1-.34-.21a5.2,5.2,0,0,0,.21-3l3.16-1.25.56-.91-.79.31-.33-.82-3.22,1.27c-1.49-2.52-4.53-2.79-7.44-1.65-4,1.57-4.18,4-4.19,6.25l-5.7,2.25a5.94,5.94,0,0,1,.8-4.31l-3.18.36a6.45,6.45,0,0,0-.7,5.16l-2.39.95-.29-.67-.49,1,.56,1.42,3.2-1.26c1.52,2.53,4.54,2.83,7.45,1.68C388,328.86,388.13,326.38,388.14,324.16Zm0-1.65a2.75,2.75,0,0,1,1.79-2.73,2.58,2.58,0,0,1,3.28.72Zm5.72-.63Zm-14.26,5.63,5.05-2a2.81,2.81,0,0,1-1.83,2.8A2.52,2.52,0,0,1,379.64,327.51Z" style="fill:#1E402D"></path><g style="opacity:0.30000000000000004"><path d="M388.14,324.16l5.75-2.27h0a5.55,5.55,0,0,1-.07,2.17,6.4,6.4,0,0,1-.56,1.22l.2,0,2.28-.28.53-.07.83-1-.34-.21a5.2,5.2,0,0,0,.21-3l3.16-1.25.56-.91-.79.31-.33-.82-3.22,1.27c-1.49-2.52-4.53-2.79-7.44-1.65-4,1.57-4.18,4-4.19,6.25l-5.7,2.25a5.94,5.94,0,0,1,.8-4.31l-3.18.36a6.45,6.45,0,0,0-.7,5.16l-2.39.95-.29-.67-.49,1,.56,1.42,3.2-1.26c1.52,2.53,4.54,2.83,7.45,1.68C388,328.86,388.13,326.38,388.14,324.16Zm0-1.65a2.75,2.75,0,0,1,1.79-2.73,2.58,2.58,0,0,1,3.28.72Zm5.72-.63Zm-14.26,5.63,5.05-2a2.81,2.81,0,0,1-1.83,2.8A2.52,2.52,0,0,1,379.64,327.51Z"></path></g><path d="M376.84,327.33l-3.26,1.06-.47-1.45,3.23-1.05a6.51,6.51,0,0,1,1-5.11l3.2-.17a6,6,0,0,0-1.07,4.25l5.83-1.89c.15-2.21.52-4.66,4.58-6,3-1,6-.5,7.32,2.11l3.3-1.07.47,1.45-3.24,1.05a6,6,0,0,1-.62,4.16l-3.18.23a5.94,5.94,0,0,0,.65-3.37l-5.89,1.91c-.15,2.22-.48,4.68-4.53,6C381.2,330.44,378.21,330,376.84,327.33Zm6.34,0a2.8,2.8,0,0,0,2-2.68L380,326.29A2.51,2.51,0,0,0,383.18,327.3Zm5.67-5.47,5.19-1.69a2.57,2.57,0,0,0-3.23-.92A2.74,2.74,0,0,0,388.85,321.83Z" style="fill:#1E402D"></path><path d="M408,321.21a2.37,2.37,0,0,1-.26.31l-.81.84c-.34.37-.78.81-1.31,1.3s-1.12,1.06-1.81,1.64a45.16,45.16,0,0,1-12,7.49,60.36,60.36,0,0,1-13.62,3.81c-1.79.27-3.24.48-4.25.57l-1.16.12a1.22,1.22,0,0,1-.4,0,1.83,1.83,0,0,1,.39-.09L374,337c1-.14,2.45-.38,4.23-.69a64.36,64.36,0,0,0,13.51-3.9,47,47,0,0,0,12-7.34c.7-.56,1.3-1.11,1.84-1.59s1-.9,1.35-1.25l.85-.79A1.57,1.57,0,0,1,408,321.21Z" style="fill:#263238"></path><path d="M382.91,339.73s-.1,0-.31.11-.5.14-.9.23c-.78.18-1.92.43-3.34.68a55.39,55.39,0,0,1-11.23.93,26.19,26.19,0,0,1-6.17-.85,12.81,12.81,0,0,1-4.59-2.17,8.05,8.05,0,0,1-2.23-2.61,5.85,5.85,0,0,1-.38-.85,1.82,1.82,0,0,1-.1-.31s.19.41.61,1.09a8.43,8.43,0,0,0,2.26,2.47,13.07,13.07,0,0,0,4.52,2.06,27.7,27.7,0,0,0,6.09.8,61.8,61.8,0,0,0,11.17-.82c1.42-.22,2.57-.42,3.36-.56A9.62,9.62,0,0,1,382.91,339.73Z" style="fill:#263238"></path><path d="M362.87,319.74a23,23,0,0,1-1.91,2,31.2,31.2,0,0,0-4.22,5,14.11,14.11,0,0,0-2.26,6.06,17.65,17.65,0,0,0,0,2.71,2.56,2.56,0,0,1-.18-.72,8.56,8.56,0,0,1-.08-2,13.4,13.4,0,0,1,2.2-6.24,27.13,27.13,0,0,1,4.36-5c.63-.58,1.14-1,1.5-1.33A3,3,0,0,1,362.87,319.74Z" style="fill:#fff"></path><path d="M377.28,322.6a12,12,0,0,1-.57,1.79,12.76,12.76,0,0,1-.48,1.81,3.14,3.14,0,0,1,.12-1.92A3.25,3.25,0,0,1,377.28,322.6Z" style="fill:#fff"></path><path d="M361.57,345.06a5.41,5.41,0,0,1-2.88-1.44,5.34,5.34,0,0,1-1.83-2.65,21.31,21.31,0,0,0,2.07,2.37A19.4,19.4,0,0,0,361.57,345.06Z" style="fill:#fff"></path></g><g id="freepik--Levels--inject-148"><path d="M389.49,155.88h-61.8c0-31.1-25.46-57.17-56.57-57.17s-56.52,26.07-56.52,57.17H152.75c0-65.27,53.1-119.12,118.37-119.12S389.49,90.61,389.49,155.88Z" style="fill:#e0e0e0"></path><path d="M271.15,44.46a110.94,110.94,0,0,0-34.93,5.62L251.4,97.26a62,62,0,0,1,41.15.58l15.79-47A111,111,0,0,0,271.15,44.46Z" style="fill:#1E402D"></path><path d="M382.57,155.88a110.84,110.84,0,0,0-18.73-61.77l-39.79,29.74a61.52,61.52,0,0,1,9,32Z" style="fill:#1E402D"></path><path d="M159.73,155.88H209.3a61.45,61.45,0,0,1,9.08-32.23L179,93.36A110.78,110.78,0,0,0,159.73,155.88Z" style="fill:#1E402D"></path><path d="M179,93.36l39.41,30.29a62.14,62.14,0,0,1,33-26.39L236.22,50.08A111.92,111.92,0,0,0,179,93.36Z" style="fill:#1E402D"></path><path d="M308.34,50.85l-15.79,47a62.26,62.26,0,0,1,31.5,26l39.79-29.74A112.06,112.06,0,0,0,308.34,50.85Z" style="fill:#1E402D"></path><g style="opacity:0.5"><path d="M159.73,155.88H209.3a61.45,61.45,0,0,1,9.08-32.23L179,93.36A110.78,110.78,0,0,0,159.73,155.88Z" style="fill:#fff"></path></g><g style="opacity:0.30000000000000004"><path d="M179,93.36l39.41,30.29a62.14,62.14,0,0,1,33-26.39L236.22,50.08A111.92,111.92,0,0,0,179,93.36Z" style="fill:#fff"></path></g><g style="opacity:0.30000000000000004"><path d="M308.34,50.85l-15.79,47a62.26,62.26,0,0,1,31.5,26l39.79-29.74A112.06,112.06,0,0,0,308.34,50.85Z"></path></g><g style="opacity:0.5"><path d="M382.57,155.88a110.84,110.84,0,0,0-18.73-61.77l-39.79,29.74a61.52,61.52,0,0,1,9,32Z"></path></g><path d="M363.84,94.11s.84,1.25,2.4,3.72a112.51,112.51,0,0,1,6.09,11.3c.58,1.27,1.21,2.61,1.79,4.06.3.72.61,1.46.92,2.22l.88,2.36c.63,1.6,1.14,3.33,1.74,5.1.26.9.53,1.81.8,2.75.14.46.27.94.41,1.41s.24,1,.37,1.46a106.13,106.13,0,0,1,2.46,12.75,116.2,116.2,0,0,1,1,14.64V156h-.12L333,156h-.15v-.15a61.37,61.37,0,0,0-13.67-38.65A62.73,62.73,0,0,0,302,102.45a64.36,64.36,0,0,0-10.76-4.91,61.81,61.81,0,0,0-36.55-1.08,60.86,60.86,0,0,0-11.93,4.73,60.11,60.11,0,0,0-10.86,7.22,61.51,61.51,0,0,0-22.37,47.47v.19H159.54v-.19a111.22,111.22,0,0,1,31.57-77.66,110.6,110.6,0,0,1,9.84-9,116.32,116.32,0,0,1,10.54-7.6,111.81,111.81,0,0,1,22.41-10.9,109,109,0,0,1,22.78-5.47,110.82,110.82,0,0,1,73.15,15.86,104.31,104.31,0,0,1,11.44,8.16A111.52,111.52,0,0,1,350,77.17c2.48,2.52,4.59,4.85,6.34,6.93L358.72,87c.69.91,1.32,1.74,1.87,2.48s1,1.4,1.44,2l1,1.46.81,1.18s-.29-.39-.84-1.16l-1-1.45c-.4-.57-.87-1.24-1.44-2a112.1,112.1,0,0,0-10.62-12.26,113.9,113.9,0,0,0-8.76-7.86,107.87,107.87,0,0,0-11.43-8.13,110.93,110.93,0,0,0-73-15.73A108.25,108.25,0,0,0,234,51a111.18,111.18,0,0,0-22.34,10.88,117.64,117.64,0,0,0-10.51,7.58,111.57,111.57,0,0,0-9.8,9,110.65,110.65,0,0,0-31.44,77.41l-.19-.18H209.3l-.19.18a61.9,61.9,0,0,1,22.5-47.75,62.09,62.09,0,0,1,22.93-12,62,62,0,0,1,36.76,1.11,64.29,64.29,0,0,1,10.82,4.94A63,63,0,0,1,319.44,117a61.7,61.7,0,0,1,13.71,38.86l-.14-.14,49.56,0-.11.11a115.88,115.88,0,0,0-1-14.61,106.5,106.5,0,0,0-2.43-12.74c-.13-.49-.25-1-.37-1.45s-.27-1-.4-1.42l-.8-2.74c-.59-1.77-1.1-3.49-1.72-5.09l-.87-2.37c-.31-.75-.62-1.49-.91-2.21-.58-1.46-1.21-2.8-1.78-4.07a119,119,0,0,0-6-11.32c-.76-1.24-1.37-2.17-1.76-2.8S363.84,94.11,363.84,94.11Z" style="fill:#263238"></path><path d="M263.82,153.36a8.88,8.88,0,1,1,11.93-3.92A8.88,8.88,0,0,1,263.82,153.36Z" style="fill:#263238"></path><path d="M320.16,93.7h0a2.22,2.22,0,0,0-3.19-.08l-53.63,49.55,6.31,7.41,50.47-53.81A2.22,2.22,0,0,0,320.16,93.7Z" style="fill:#263238"></path><path d="M263.82,153.36a8.88,8.88,0,1,1,11.93-3.92A8.88,8.88,0,0,1,263.82,153.36Z" style="fill:#263238"></path><path d="M320.16,93.7h0a2.22,2.22,0,0,0-3.19-.08l-53.63,49.55,6.31,7.41,50.47-53.81A2.22,2.22,0,0,0,320.16,93.7Z" style="fill:#263238"></path><path d="M343.47,137.45h1.77v3.41a5.81,5.81,0,0,1-3.39,1.07,4.35,4.35,0,1,1,0-8.69,4.51,4.51,0,0,1,3.52,1.45l-1.25,1.16a2.83,2.83,0,0,0-2.17-.95,2.69,2.69,0,1,0,0,5.37,3,3,0,0,0,1.51-.36Z" style="fill:#fff"></path><path d="M346.52,137.58a4.6,4.6,0,1,1,4.59,4.35A4.34,4.34,0,0,1,346.52,137.58Zm7.22,0a2.63,2.63,0,1,0-2.63,2.69A2.56,2.56,0,0,0,353.74,137.58Z" style="fill:#fff"></path><path d="M356.65,137.58a4.6,4.6,0,1,1,4.59,4.35A4.34,4.34,0,0,1,356.65,137.58Zm7.22,0a2.63,2.63,0,1,0-2.63,2.69A2.56,2.56,0,0,0,363.87,137.58Z" style="fill:#fff"></path><path d="M367.3,133.39h3.82c2.74,0,4.63,1.65,4.63,4.19s-1.89,4.2-4.63,4.2H367.3Zm3.72,6.8a2.61,2.61,0,1,0,0-5.21h-1.77v5.21Z" style="fill:#fff"></path><path d="M177.14,131c0,1.87-1.41,3-3.65,3H171.8v2.31h-1.94V128h3.63C175.73,128,177.14,129.15,177.14,131Zm-2,0c0-.92-.6-1.46-1.79-1.46H171.8v2.91h1.58C174.57,132.48,175.17,131.94,175.17,131Z" style="fill:#fff"></path><path d="M178.11,132.18a4.6,4.6,0,1,1,4.6,4.35A4.35,4.35,0,0,1,178.11,132.18Zm7.22,0a2.63,2.63,0,1,0-2.62,2.69A2.55,2.55,0,0,0,185.33,132.18Z" style="fill:#fff"></path><path d="M188.24,132.18a4.6,4.6,0,1,1,4.6,4.35A4.35,4.35,0,0,1,188.24,132.18Zm7.22,0a2.63,2.63,0,1,0-2.62,2.69A2.55,2.55,0,0,0,195.46,132.18Z" style="fill:#fff"></path><path d="M204.25,136.38,202.63,134h-1.79v2.34H198.9V128h3.63c2.24,0,3.65,1.16,3.65,3a2.73,2.73,0,0,1-1.73,2.65l1.88,2.7Zm-1.83-6.81h-1.58v2.93h1.58c1.19,0,1.79-.56,1.79-1.47S203.61,129.57,202.42,129.57Z" style="fill:#fff"></path></g><g id="freepik--Character--inject-148"><path d="M144.33,435.13,143.13,457s21.82,8.56,22,12.62l-42.47-.8.47-34.14Z" style="fill:#263238"></path><path d="M130,454.9a1.73,1.73,0,0,0-1.23,2,1.67,1.67,0,0,0,1.93,1.24A1.84,1.84,0,0,0,132,456a1.73,1.73,0,0,0-2.15-1.07" style="fill:#e0e0e0"></path><path d="M122.65,468.81l.18-3.44,40.66,2.05s1.87.86,1.63,2.19Z" style="fill:#455a64"></path><path d="M143.82,456.78c0,.21-1,.29-2.08.93s-1.59,1.51-1.78,1.43.14-1.28,1.41-2S143.87,456.59,143.82,456.78Z" style="fill:#fff"></path><path d="M148.24,458.71c0,.2-.86.54-1.58,1.4s-.94,1.79-1.15,1.78-.31-1.19.61-2.25S148.24,458.51,148.24,458.71Z" style="fill:#fff"></path><path d="M150.67,464.09c-.19,0-.45-1,.1-2.13s1.53-1.56,1.62-1.38-.53.77-1,1.7S150.88,464.07,150.67,464.09Z" style="fill:#fff"></path><path d="M143.55,451.77c-.1.19-1-.12-2.22-.06s-2.09.41-2.19.23.78-.9,2.17-.95S143.65,451.61,143.55,451.77Z" style="fill:#fff"></path><path d="M92.91,433l-2.3,26.39,4.2,21.4A2.71,2.71,0,0,1,92.49,484h0a2.7,2.7,0,0,1-2.34-.85c-3.78-4.13-17.63-19.38-17.36-21.3.32-2.23.58-28,.58-28Z" style="fill:#263238"></path><path d="M92.49,484,72.91,460l-.07,1.12a4,4,0,0,0,.79,2.71c1.55,2.08,6,7.73,16.44,19.26a2.71,2.71,0,0,0,2.42.85Z" style="fill:#455a64"></path><g style="opacity:0.6000000000000001"><path d="M78.88,451.85a1.65,1.65,0,0,1,.31,2.17,1.57,1.57,0,0,1-2.15.33,1.73,1.73,0,0,1-.31-2.3A1.64,1.64,0,0,1,79,452" style="fill:#fff"></path></g><path d="M87.19,472a8.31,8.31,0,0,1,2.45-1.9,8.09,8.09,0,0,1,3.08-.39c0-.06-.3-.29-.91-.42a4.22,4.22,0,0,0-2.4.27,4.3,4.3,0,0,0-1.88,1.51C87.19,471.62,87.12,472,87.19,472Z" style="fill:#fff"></path><path d="M88.84,475.69a23.61,23.61,0,0,1,2.42-1,20.78,20.78,0,0,1,2.6-.17,3,3,0,0,0-2.73-.4C89.54,474.5,88.71,475.61,88.84,475.69Z" style="fill:#fff"></path><path d="M84,467.27c.12.14,1.5-1.11,3.63-1.77a25.41,25.41,0,0,1,4-.66,5.94,5.94,0,0,0-4.15.1A6.05,6.05,0,0,0,84,467.27Z" style="fill:#fff"></path><path d="M84,459.19c.06.17,1.56-.35,3.47-.3s3.38.61,3.44.45-1.38-1-3.43-1A5.28,5.28,0,0,0,84,459.19Z" style="fill:#fff"></path><path d="M84.48,451.43a13.35,13.35,0,0,1,3.6-.41,13.4,13.4,0,0,1,3.45,1.11c0-.06-.22-.41-.81-.8a5.89,5.89,0,0,0-5.29-.52C84.78,451.08,84.44,451.37,84.48,451.43Z" style="fill:#fff"></path><path d="M88.13,449.54a2.51,2.51,0,0,0,.1-1,7.15,7.15,0,0,0-.63-2.67,3,3,0,0,0-1.23-1.55,1.09,1.09,0,0,0-1.24.16,1.76,1.76,0,0,0-.49,1.17,3.84,3.84,0,0,0,3.12,3.76,4.44,4.44,0,0,0,4.51-2.05,1.51,1.51,0,0,0,.16-1.27,1.06,1.06,0,0,0-1.08-.64,3.89,3.89,0,0,0-1.8.79,8,8,0,0,0-1.94,1.94,2.35,2.35,0,0,0-.46.89,12.19,12.19,0,0,1,2.63-2.49,3.55,3.55,0,0,1,1.58-.65.57.57,0,0,1,.59.34,1.07,1.07,0,0,1-.15.84,4,4,0,0,1-3.93,1.72,3.32,3.32,0,0,1-2.7-3.15,1.37,1.37,0,0,1,.31-.83.61.61,0,0,1,.69-.1,2.78,2.78,0,0,1,1.06,1.3A10.34,10.34,0,0,1,88.13,449.54Z" style="fill:#fff"></path><path d="M165.37,251.52a94,94,0,0,1,2,27.66c-.45,5.88-20.29,168.51-20.29,168.51H120.35l7.53-152.85-2.19.48s-14.63,65.18-15.82,75.74c-1.07,9.49-13.4,78.41-13.4,78.41L72,449.75l7.82-91.16,9.1-87.48,3.43-25.46Z" style="fill:#263238"></path><path d="M123.66,279.25a5.24,5.24,0,0,0,1.11.63,13.22,13.22,0,0,0,3.32,1.16,7.27,7.27,0,0,0,2.47,0,5.08,5.08,0,0,0,2.58-1.24,6.13,6.13,0,0,0,1.56-2.74,32.81,32.81,0,0,0,.72-3.22c.85-4.41,1.43-8.44,1.77-11.36.17-1.47.28-2.65.34-3.47a6.54,6.54,0,0,0,0-1.28,5.31,5.31,0,0,0-.26,1.25c-.14.93-.31,2.08-.52,3.44-.44,2.91-1.07,6.91-1.93,11.31-.43,2.18-.72,4.39-2.08,5.69a5.59,5.59,0,0,1-4.63,1.2,14.84,14.84,0,0,1-3.29-1A5.66,5.66,0,0,0,123.66,279.25Z" style="fill:#263238"></path><path d="M131.72,258.52s-.18-.14-.55-.17a2.43,2.43,0,0,0-1.5.49,2.64,2.64,0,0,0-1.13,2.06,2.66,2.66,0,0,0,4.52,1.7,2.65,2.65,0,0,0,.51-2.3,2.4,2.4,0,0,0-.81-1.35c-.3-.23-.51-.26-.52-.24a3.13,3.13,0,0,1,.94,1.66,2.32,2.32,0,0,1-.51,1.88,2.17,2.17,0,0,1-3.61-1.35,2.35,2.35,0,0,1,.86-1.75A3,3,0,0,1,131.72,258.52Z" style="fill:#263238"></path><path d="M89.27,269.54a2.87,2.87,0,0,0,.92.14,16.42,16.42,0,0,0,2.51,0,24.27,24.27,0,0,0,15-6.33,17.55,17.55,0,0,0,1.73-1.82c.37-.46.57-.72.54-.75s-.94.92-2.54,2.27a27,27,0,0,1-14.8,6.23C90.59,269.51,89.28,269.44,89.27,269.54Z" style="fill:#263238"></path><path d="M154.38,259a12.57,12.57,0,0,0,1.24,2.73,30.1,30.1,0,0,0,4.14,5.76A28.18,28.18,0,0,0,165,272a10,10,0,0,0,2.47,1.31,26.35,26.35,0,0,0-2.28-1.66,35.72,35.72,0,0,1-5.08-4.54,38.42,38.42,0,0,1-4.19-5.58C155,260,154.45,259,154.38,259Z" style="fill:#263238"></path><path d="M237.55,191.6c2.84-1.07,6-2.15,6-2.15l2.79-1.11a2.42,2.42,0,0,1,0,.6,2.39,2.39,0,0,0,0,1.13,1.81,1.81,0,0,0,1.86.84,4.4,4.4,0,0,0,3.59-2.45,4.34,4.34,0,0,0-.31-4.16,3.28,3.28,0,0,0,0-1.24c-.64-2.75-4.48-4.21-4.48-4.21l.92-.52s3.27-.39,6.24,4.22A3.38,3.38,0,0,0,256.1,184a1.69,1.69,0,0,0,1.45-.15c1.1-.75.85-1.72-1-4.62s-4.52-5.11-6.82-5.3a21.88,21.88,0,0,0-3.2-.11s8.07-5.22,8.57-5.58c1.44-1,2.19-2.5,1.6-3.52-.38-.66-1.34-1.2-3.05-.07-1.49,1-17.95,9.08-17.95,9.08l-7.07,4-5.3,4.25,6.93,9.42.81.28A9.38,9.38,0,0,0,237.55,191.6Z" style="fill:#ffbf9d"></path><path d="M230.1,178.67a2.51,2.51,0,0,0,2.56,1.4c1.05,0,2.05-.43,3.09-.54,3.12-.34,6.15,1.8,9.24,1.31.43-.07.94-.29,1-.72s-.4-.67-.75-.86L236,174.51" style="fill:#ffbf9d"></path><path d="M236,174.51a3.91,3.91,0,0,1,1,.41c.66.3,1.6.75,2.76,1.32l4.06,2,1.17.59c.36.22.92.34,1.18,1a.86.86,0,0,1-.31.92,1.82,1.82,0,0,1-.78.33,7.14,7.14,0,0,1-1.53.08,41.73,41.73,0,0,1-5.45-1.24,7.93,7.93,0,0,0-2.34-.18c-.72.07-1.4.26-2.05.37a3.65,3.65,0,0,1-3.05-.5c-.61-.5-.63-1-.6-1a2.77,2.77,0,0,0,.73.79,3.59,3.59,0,0,0,2.84.27,20.22,20.22,0,0,1,2.08-.44,7.82,7.82,0,0,1,2.49.13c1.72.3,3.48,1.05,5.38,1.18a6.3,6.3,0,0,0,1.38-.06c.43-.08.75-.31.65-.53s-.48-.46-.88-.66l-1.16-.61-4-2.13c-1.14-.62-2.05-1.12-2.68-1.49A4.07,4.07,0,0,1,236,174.51Z" style="fill:#ff9a6c"></path><path d="M246.91,178.77a4.48,4.48,0,0,1,1.9-.49,3.25,3.25,0,0,1,1.94.72,8.78,8.78,0,0,1,1.76,1.94,12.63,12.63,0,0,0,1.7,2.12,4.27,4.27,0,0,0,2,1.12,1.69,1.69,0,0,0,1.48-.33c.28-.24.35-.43.34-.44s-.15.13-.43.32a1.59,1.59,0,0,1-1.33.19,4.2,4.2,0,0,1-1.78-1.11,14.64,14.64,0,0,1-1.64-2.08,8,8,0,0,0-1.86-2,3.51,3.51,0,0,0-2.15-.71,3.11,3.11,0,0,0-1.47.41A1.27,1.27,0,0,0,246.91,178.77Z" style="fill:#ff9a6c"></path><path d="M255.69,167.83a10.93,10.93,0,0,0-1.61,1l-3.82,2.57L246.41,174a9.55,9.55,0,0,0-1.57,1.08,8.82,8.82,0,0,0,1.71-.86c1-.58,2.42-1.43,3.93-2.42s2.82-1.95,3.76-2.67A8.66,8.66,0,0,0,255.69,167.83Z" style="fill:#ff9a6c"></path><path d="M246.31,181.76s.17.14.49.35a1.73,1.73,0,0,1,.88,1.18.94.94,0,0,1-.39.85,4.65,4.65,0,0,1-1.09.61,2.17,2.17,0,0,0-1.13,1,1.82,1.82,0,0,0,.18,1.63,2.1,2.1,0,0,0,1.38.89,2.65,2.65,0,0,0,1.51-.15,8.62,8.62,0,0,0,2-1.38,4.88,4.88,0,0,0,1-1.28,1.14,1.14,0,0,0,.17-.58s-.1.2-.3.51a6.19,6.19,0,0,1-1.1,1.15,9.09,9.09,0,0,1-2,1.26,2.06,2.06,0,0,1-2.43-.62,1.43,1.43,0,0,1-.16-1.29,1.83,1.83,0,0,1,.94-.85,4.65,4.65,0,0,0,1.14-.68,1.22,1.22,0,0,0,.45-1.12,1.83,1.83,0,0,0-1.07-1.28A1.52,1.52,0,0,0,246.31,181.76Z" style="fill:#ff9a6c"></path><path d="M246.79,188s-.21.05-.43.34a1.66,1.66,0,0,0-.2,1.47,2.22,2.22,0,0,0,1.71,1.38,3.66,3.66,0,0,0,2.64-.61,4.32,4.32,0,0,0,1.68-2.09,4.12,4.12,0,0,0,.2-2.18,3.69,3.69,0,0,0-.52-1.37c-.18-.3-.32-.43-.34-.42a6.45,6.45,0,0,1,.59,1.83,4,4,0,0,1-.26,2,4.13,4.13,0,0,1-1.56,1.91,3.43,3.43,0,0,1-2.36.58,2,2,0,0,1-1.53-1.14,1.57,1.57,0,0,1,.08-1.29C246.65,188.13,246.81,188,246.79,188Z" style="fill:#ff9a6c"></path><path d="M237.75,186s-.11-.34-.52-.75a3.57,3.57,0,0,0-2.13-1l.1.32a11.13,11.13,0,0,0,1-.89,8.08,8.08,0,0,0,2.24-3.84,20.22,20.22,0,0,1-2.52,3.58c-.31.32-.62.61-.91.87l-.33.28.43,0a3.7,3.7,0,0,1,2,.8C237.51,185.8,237.71,186.07,237.75,186Z" style="fill:#ff9a6c"></path><path d="M251.51,177.2c-.09,0-.46.63-.29,1.53s.74,1.42.81,1.34-.3-.62-.44-1.4S251.61,177.23,251.51,177.2Z" style="fill:#ff9a6c"></path><path d="M110,73.62c.47-4.06,3.12-6.43,6.75-8.31a12.77,12.77,0,0,1,11.78.13c2.4,1.32,4.44,3.45,7.13,4,4.43.83,8.89-3.07,13.2-1.79A5.81,5.81,0,0,1,147.78,79c2.9.58,4.34,4.37,3.11,7.06s-4.39,4.1-7.35,4a16.27,16.27,0,0,1-8.19-3.1c-2.47-1.62-4.75-3.54-7.34-5a12.64,12.64,0,0,0-8.5-1.75c-3.92.81-6.86,4.3-8.09,8.11s-1,7.92-.65,11.9.91,8,.31,12a1.46,1.46,0,0,1-.63,1.19c-.61.3-1.26-.3-1.66-.84a58.47,58.47,0,0,1-9.89-20.6c-1.11-4.31-1.62-8.47.23-12.52s7.53-7.68,10.86-5.8" style="fill:#263238"></path><path d="M105.12,93.11l4.24,40.64c.79,7.59,7.81,20.65,19.75,18.85l-.3-.65c10.25-2.34,7.66-14.5,6.86-23.51h0s11.25-2.26,10.89-13.59c-.17-5.47-1.44-16.72-2.7-26.89A21.12,21.12,0,0,0,122,69.49l-1.09.05C109.13,70.74,103.59,81.39,105.12,93.11Z" style="fill:#ffbf9d"></path><path d="M135.67,128.44a27.39,27.39,0,0,1-14.94-3.72s4,8.63,15.2,7.11Z" style="fill:#ff9a6c"></path><path d="M139.4,99a1.61,1.61,0,0,1-1.49,1.69,1.54,1.54,0,0,1-1.73-1.38,1.62,1.62,0,0,1,1.48-1.7A1.55,1.55,0,0,1,139.4,99Z" style="fill:#263238"></path><path d="M141.67,93.63c-.2.22-1.46-.64-3.2-.56s-3,1-3.18.81.09-.48.63-.91a4.48,4.48,0,0,1,2.53-.91,4.24,4.24,0,0,1,2.56.71C141.56,93.15,141.76,93.53,141.67,93.63Z" style="fill:#263238"></path><path d="M124,99.65a1.63,1.63,0,0,1-1.49,1.7,1.54,1.54,0,0,1-1.73-1.39,1.62,1.62,0,0,1,1.48-1.7A1.57,1.57,0,0,1,124,99.65Z" style="fill:#263238"></path><path d="M124.57,94.7c-.19.22-1.45-.64-3.19-.56s-3,1-3.18.8.09-.47.63-.9a4.48,4.48,0,0,1,2.53-.91,4.26,4.26,0,0,1,2.56.71C124.47,94.22,124.67,94.6,124.57,94.7Z" style="fill:#263238"></path><path d="M131.45,107.33a11.23,11.23,0,0,1,2.81-.64c.44-.06.85-.17.92-.47a2.28,2.28,0,0,0-.36-1.31c-.46-1.06-.95-2.16-1.46-3.32-2-4.74-3.53-8.65-3.34-8.73s2,3.7,4,8.44c.5,1.17,1,2.28,1.41,3.35a2.54,2.54,0,0,1,.31,1.73,1.12,1.12,0,0,1-.7.68,2.87,2.87,0,0,1-.75.14A11.44,11.44,0,0,1,131.45,107.33Z" style="fill:#263238"></path><path d="M124.73,87.86c-.16.48-1.9.33-3.93.66s-3.66,1-4,.56c-.13-.2.14-.66.78-1.15a6.73,6.73,0,0,1,2.9-1.15,6.56,6.56,0,0,1,3.1.22C124.4,87.27,124.79,87.63,124.73,87.86Z" style="fill:#263238"></path><path d="M140.81,88.62c-.29.41-1.51,0-2.95.09s-2.65.38-3,0c-.13-.19,0-.6.56-1a4.09,4.09,0,0,1,2.37-.76,4,4,0,0,1,2.38.7C140.75,88,140.93,88.42,140.81,88.62Z" style="fill:#263238"></path><path d="M106.41,101.45c-.2-.07-7.89-2-7.3,5.77s8.22,5.55,8.22,5.33S106.41,101.45,106.41,101.45Z" style="fill:#ffbf9d"></path><path d="M104.75,109.8s-.13.1-.35.22a1.33,1.33,0,0,1-1,.1c-.84-.24-1.63-1.48-1.77-2.87a4.33,4.33,0,0,1,.23-2,1.56,1.56,0,0,1,.93-1.11.69.69,0,0,1,.83.31c.12.21.08.37.12.38s.16-.15.07-.46a.84.84,0,0,0-.34-.46,1,1,0,0,0-.76-.14,1.89,1.89,0,0,0-1.32,1.3,4.62,4.62,0,0,0-.3,2.19c.17,1.56,1.07,3,2.22,3.19a1.41,1.41,0,0,0,1.21-.3C104.75,110,104.78,109.81,104.75,109.8Z" style="fill:#ff9a6c"></path><path d="M143.53,77.41a14.81,14.81,0,0,0-5-5.27,25.24,25.24,0,0,0-14.86-4.59,20.5,20.5,0,0,0-14.17,6.07A21.65,21.65,0,0,0,104,84.82a32,32,0,0,0,.47,12.56,9.64,9.64,0,0,0,2.32,5c.84.8,2.23,1.29,3.12.55a3.12,3.12,0,0,0,.82-1.83c1.23-6,2.42-12.52,0-18.18a17.79,17.79,0,0,1,5.12-5.14,9.22,9.22,0,0,1,7-1.27c3.5.92,5.77,4.18,8.63,6.4a16.4,16.4,0,0,0,14.67,2.64Z" style="fill:#263238"></path><path d="M132.71,112.09a7.51,7.51,0,0,1-.7,2.08,2.61,2.61,0,0,1-1.66,1.34,2.36,2.36,0,0,1-2.11-.77,3.72,3.72,0,0,1-.88-2.14c-.07-.7.12-1.58.8-1.77a1.76,1.76,0,0,1,.88.06l3.87.93" style="fill:#ff9a6c"></path><path d="M131.7,115.31a5.19,5.19,0,0,1-2,.06,2.83,2.83,0,0,1-1.67-1.12,3,3,0,0,1-.41-2.38,2.36,2.36,0,0,1,.24-.59c.12-.18.09-.17.25-.17s.41.1.62.14l.64.16c.83.2,1.58.37,2.21.5a6.53,6.53,0,0,0,2.08.3,6.67,6.67,0,0,0-2-.75c-.62-.19-1.36-.41-2.18-.64l-.63-.18c-.23,0-.4-.12-.71-.17a.85.85,0,0,0-.54.1.89.89,0,0,0-.35.38,3.29,3.29,0,0,0-.31.75,3.45,3.45,0,0,0,.55,2.9,3.17,3.17,0,0,0,2.08,1.22,3,3,0,0,0,1.59-.17C131.57,115.5,131.72,115.35,131.7,115.31Z" style="fill:#263238"></path><path d="M151.34,69.32a2.18,2.18,0,0,1,.12.51,5.33,5.33,0,0,1,0,1.52,7,7,0,0,1-3,4.55,10.48,10.48,0,0,1-8,1.18c-3.09-.6-6.12-2.27-9.3-3.8s-6.47-2.62-9.5-2.24a12.13,12.13,0,0,0-7.06,3.53A15.89,15.89,0,0,0,111.29,79c-.56,1.17-.77,1.86-.82,1.84a1.68,1.68,0,0,1,.12-.51,13.79,13.79,0,0,1,.52-1.42,15.63,15.63,0,0,1,3.11-4.58,12.37,12.37,0,0,1,7.26-3.73c3.16-.42,6.57.71,9.76,2.25s6.19,3.19,9.19,3.8a10.23,10.23,0,0,0,7.74-1,7,7,0,0,0,3.06-4.3A7.89,7.89,0,0,0,151.34,69.32Z" style="fill:#455a64"></path><path d="M99.62,89.83a5.7,5.7,0,0,1,.42-2.1,13.27,13.27,0,0,1,2.59-4.49,13.51,13.51,0,0,1,2.12-1.94,4.86,4.86,0,0,1,2.16-1,2.53,2.53,0,0,1,1.6.28c.33.19.45.38.43.4a3,3,0,0,0-2-.33c-1.22.25-2.65,1.47-4,2.91a15.33,15.33,0,0,0-2.63,4.28C99.88,89.05,99.71,89.85,99.62,89.83Z" style="fill:#455a64"></path><path d="M101.28,96.59a5.88,5.88,0,0,1,.56-2.09,14.24,14.24,0,0,1,2.81-4.39,14.43,14.43,0,0,1,4.21-3.1,6,6,0,0,1,2-.69,21.15,21.15,0,0,1-1.89,1,16.42,16.42,0,0,0-6.86,7.32A19.08,19.08,0,0,1,101.28,96.59Z" style="fill:#455a64"></path><path d="M108.48,130l13.57,10.63,8.59,10.91,3.15-11.31,2.25-8.87,3.69,3.66,9.37,20,10.54,96.43s-18.38,5.38-27.9,6-24.69-1.95-24.69-1.95V204.76l-5.4-50.24,6.51-19.25Z" style="fill:#f5f5f5"></path><path d="M135.9,256.81s0-.09,0-.27,0-.46,0-.79c0-.73-.07-1.75-.11-3.06-.1-2.68-.22-6.51-.38-11.24-.33-9.48-.85-22.59-1.6-37s-1.59-27.56-2.24-37c-.33-4.72-.59-8.54-.78-11.22-.09-1.3-.16-2.32-.2-3.05,0-.33,0-.59-.05-.79a.92.92,0,0,1,0-.27,1.14,1.14,0,0,1,0,.27c0,.2,0,.46.08.79.07.72.16,1.74.28,3,.24,2.65.55,6.48.91,11.21.73,9.47,1.6,22.56,2.35,37s1.23,27.57,1.49,37.06c.13,4.75.21,8.59.25,11.25,0,1.31,0,2.33,0,3.05v.8A1.39,1.39,0,0,1,135.9,256.81Z" style="fill:#263238"></path><path d="M106.37,135l-3.15,4.33-25.7,13.53,14.31,43.62L95.68,221,81.23,279.1s17.53,6,19.07,4.1c.65-.81,2.49-5,4.41-9.56a103,103,0,0,0,7.36-28.55c1.07-9.89,2.05-22.51,1.33-31.05-1.34-16-3.46-42.38-3.66-49.32s-1.42-33.12-1.42-33.12Z" style="fill:#1E402D"></path><path d="M137.85,132.46l8.51,5,27.54,9L171.69,166l-1.26,50.4,8.67,60.49s-9.25,3.28-12.91,1.93-8.67-9.63-8.86-14.64S150,210.57,150,210.57l-6.94-65.31Z" style="fill:#1E402D"></path><path d="M146.88,137.4a4.07,4.07,0,0,1,.35.39l1,1.17,3.54,4.42.07.1-.1.07-3,2.28,0-.25,3.51,1.11.11,0v.11c-.06,6.27-.15,14.16-.24,22.71-.15,10.44-.29,19.88-.39,26.76-.07,3.4-.12,6.16-.16,8.1,0,.94-.05,1.67-.07,2.21l0,.57c0,.13,0,.2,0,.2s0-.07,0-.2,0-.34,0-.57c0-.54,0-1.27,0-2.21,0-1.94,0-4.71,0-8.11.07-6.87.17-16.32.27-26.76.13-8.55.24-16.43.33-22.7l.11.15-3.51-1.14-.26-.09.22-.16,3-2.24,0,.17L148.08,139l-.9-1.21A4.69,4.69,0,0,1,146.88,137.4Z" style="fill:#263238"></path><path d="M112.62,205.75a.92.92,0,0,1-.07-.18l-.18-.57-.71-2.16c-.61-1.87-1.52-4.57-2.7-7.9q-.88-2.49-1.94-5.42c-.72-1.94-1.38-4.08-2-6.34a139.8,139.8,0,0,1-2.76-14.92c-1-6.95-1.57-13.49-2-19.13v-.08l0-.05,3-2.92,0,.24-2.87-2.19-.12-.08.09-.12,5.18-7c.61-.8,1.08-1.44,1.43-1.9l.38-.48c.08-.11.13-.17.14-.16a1.92,1.92,0,0,1-.11.18l-.35.51L105.85,137l-5.08,7.1,0-.2,2.89,2.16.14.11-.13.13-3,2.94.06-.13c.4,5.62,1,12.16,2,19.09a147.17,147.17,0,0,0,2.72,14.9c.58,2.25,1.22,4.36,1.93,6.31l1.9,5.44c1.14,3.34,2,6.06,2.58,8,.29.94.5,1.68.63,2.18l.15.57C112.62,205.68,112.63,205.75,112.62,205.75Z" style="fill:#263238"></path><g style="opacity:0.30000000000000004"><polygon points="90.55 241.74 105.5 247.6 106.5 244.27 111.58 248.92 112.49 240.84 107.8 232.1 91.65 237.34 90.55 241.74"></polygon></g><path d="M141.35,241.62l-6.07-3.68L130,233.11a13.63,13.63,0,0,0,4.14,2.26A3.43,3.43,0,0,0,138,233.9s-2.18-1.37-2.93-1.79-8.32-6.06-10.24-6.48-14.56-3-14.56-3l-.2.65-6.25,13.33,5.55,1.49a36.32,36.32,0,0,1,2.84,4.66c1.24,2.5,7.31,5,9.64,6.19s5-.92,5-.92c2.69.61,3.35-2.27,3.35-2.27,3.08-.41,3.34-3.77,3.34-3.77a72.84,72.84,0,0,0,7.32,2.47,1.06,1.06,0,0,0,1.28-.66A1.79,1.79,0,0,0,141.35,241.62Z" style="fill:#ffbf9d"></path><path d="M133.51,242a15.13,15.13,0,0,1-3.53-1.59,11.44,11.44,0,0,1-3.16-2.26c.07-.09,1.48.9,3.35,1.92A23.9,23.9,0,0,1,133.51,242Z" style="fill:#ff9a6c"></path><path d="M123.68,241.51a15.59,15.59,0,0,1,3.49,2.06,33.25,33.25,0,0,1,3.28,2.37,15.34,15.34,0,0,1-3.51-2A31.46,31.46,0,0,1,123.68,241.51Z" style="fill:#ff9a6c"></path><path d="M121.27,244.08c.07-.07,1.24.9,2.81,2a15.15,15.15,0,0,1,2.74,2.07,14.57,14.57,0,0,1-3-1.75A9,9,0,0,1,121.27,244.08Z" style="fill:#ff9a6c"></path><path d="M122.83,227.8a3.28,3.28,0,0,1,1.35.29,10.16,10.16,0,0,1,2.91,1.63,13.18,13.18,0,0,1,2.34,2.37,3.93,3.93,0,0,1,.74,1.16c-.11.09-1.32-1.64-3.32-3.22A18.28,18.28,0,0,0,122.83,227.8Z" style="fill:#ff9a6c"></path><path d="M64.29,226a5.7,5.7,0,0,1-2.68-4.63,52.29,52.29,0,0,1,.46-7.89c1.07-8.9,15.63-60.56,15.63-60.56l14.65,40.26-5,17.53L113,223l-7.14,20.13S71.76,230.64,64.29,226Z" style="fill:#1E402D"></path><path d="M173.9,146.48l23.52,44.72.63.92L223.7,179l8.45,17.09-34.52,21a8.61,8.61,0,0,1-11.56-2.61L170.82,191.7,166.71,173Z" style="fill:#1E402D"></path><path d="M171,159.24a3,3,0,0,1,0,.56c0,.41,0,.94.06,1.61,0,1.45.06,3.47.11,6,.06,5,.09,12,0,19.62s-.23,14.6-.39,19.62c-.1,2.48-.17,4.5-.23,5.94,0,.67-.06,1.21-.08,1.62a2.05,2.05,0,0,1-.06.56,3.42,3.42,0,0,1,0-.56c0-.41,0-.95,0-1.62,0-1.45.06-3.47.1-5.95.09-5,.2-12,.28-19.61s.09-14.6.1-19.62c0-2.48,0-4.5,0-5.94,0-.67,0-1.21,0-1.62A2.2,2.2,0,0,1,171,159.24Z" style="fill:#263238"></path><path d="M83.38,164.09a2.32,2.32,0,0,1,.16.45l.39,1.32,1.38,4.85c1.14,4.1,2.71,9.77,4.31,16.08s2.85,12.05,3.65,16.24c.39,2.09.69,3.79.87,5,.09.55.15,1,.21,1.36a2.38,2.38,0,0,1,0,.47,2.45,2.45,0,0,1-.12-.46c-.07-.35-.17-.79-.28-1.34-.24-1.22-.58-2.9-1-4.95-.86-4.16-2.17-9.9-3.76-16.2s-3.12-12-4.19-16.1c-.52-2-1-3.68-1.25-4.88-.14-.55-.24-1-.32-1.34A2.64,2.64,0,0,1,83.38,164.09Z" style="fill:#263238"></path><path d="M72.78,230.13l.16.05.48.17,1.85.69,6.89,2.64,23.72,9.25-.25.11,4.78-13.51,2.35-6.63.1.24L87.53,210.91h0a15,15,0,0,0-6-.68,14.65,14.65,0,0,0-4.43,1.12,19.41,19.41,0,0,0-2.57,1.35l-.63.42c-.15.09-.22.14-.23.13l.2-.16.61-.45a16.83,16.83,0,0,1,2.56-1.43,14.65,14.65,0,0,1,4.46-1.2,15,15,0,0,1,6.09.63h0L113,222.79l.16.08-.06.16-2.35,6.63c-1.67,4.73-3.29,9.29-4.79,13.51l-.07.18-.18-.07-23.67-9.37-6.85-2.75-1.82-.75-.47-.2Z" style="fill:#263238"></path><path d="M198.23,191.66a6,6,0,0,1,.06,1.76,27.85,27.85,0,0,1-.59,4.2c-.34,1.62-.69,3.07-.92,4.12a8.3,8.3,0,0,1-.43,1.7,6.87,6.87,0,0,1,.15-1.75c.17-1.07.47-2.54.81-4.15s.58-3.08.7-4.15A10.85,10.85,0,0,1,198.23,191.66Z" style="fill:#263238"></path><path d="M198.23,192.74A19.34,19.34,0,0,1,197,196.8a31.28,31.28,0,0,1-1.61,3.92,18,18,0,0,1,1.24-4.06A29.59,29.59,0,0,1,198.23,192.74Z" style="fill:#263238"></path><path d="M130.32,151.16a7.1,7.1,0,0,1-.72-.66l-1.91-1.89-6.45-6.6h.28a7.9,7.9,0,0,0-1.66,3.54,7.82,7.82,0,0,0-.16,2.08l0,.44-.34-.28c-3.27-2.64-5.91-5.24-7.89-7-1-.89-1.77-1.6-2.33-2.09a8.52,8.52,0,0,1-.84-.77,5.66,5.66,0,0,1,.93.66c.59.45,1.41,1.13,2.42,2,2,1.73,4.71,4.29,8,6.9l-.32.17a8,8,0,0,1,.17-2.17,8.25,8.25,0,0,1,1.76-3.72l.14-.16.14.15,6.36,6.69,1.83,2A4.63,4.63,0,0,1,130.32,151.16Z" style="fill:#263238"></path><path d="M139,136.74a2.47,2.47,0,0,1,0,.61c0,.39,0,1-.08,1.69a35.73,35.73,0,0,1-1,5.82l-.12.48-.22-.44a14.17,14.17,0,0,0-2.5-3.45c-.29-.29-.58-.57-.87-.82l.32-.1a54.52,54.52,0,0,1-2.33,7.7c-.37,1-.7,1.71-.94,2.22a4.32,4.32,0,0,1-.4.77,3.37,3.37,0,0,1,.27-.83l.82-2.25a66.9,66.9,0,0,0,2.19-7.7l.08-.32.24.22a11.48,11.48,0,0,1,.9.83,14.32,14.32,0,0,1,2.55,3.56l-.35,0a41.69,41.69,0,0,0,1.09-5.75C138.86,137.59,138.91,136.74,139,136.74Z" style="fill:#263238"></path><polygon points="162.36 238.12 164.65 245.26 177.65 244.05 173.6 237.24 162.36 238.12" style="fill:#1E402D"></polygon><path d="M162.36,238.12a4.9,4.9,0,0,1,.77-.1l2.28-.23c2-.18,4.8-.45,8.18-.73h.11l.05.09,4.07,6.81.17.27-.32,0-.67.06-12.33,1.1h-.13l0-.12c-.7-2.23-1.24-4-1.61-5.28l-.42-1.42a4,4,0,0,1-.12-.48s.08.19.2.52.3.85.5,1.44l1.74,5.13-.16-.11L177,243.92l.67-.06-.16.3-4-6.83.16.08c-3.28.25-6.07.42-8.06.54l-2.33.14C162.68,238.12,162.37,238.13,162.36,238.12Z" style="fill:#263238"></path><rect x="154.27" y="181.52" width="13.97" height="4.51" style="fill:#1E402D"></rect><path d="M168.24,186a1.62,1.62,0,0,1,0-.33q0-.37,0-.9c0-.82,0-1.92-.07-3.28l.13.13c-3.33,0-8.36.07-14,.07l.2-.2h0v2.29c0,.75,0,1.48,0,2.2l-.19-.19c4,0,7.44,0,9.93.08l2.94.06a10.53,10.53,0,0,1,1.1.05s-.34,0-1,.05l-2.9,0c-2.48,0-6,.08-10.06.09h-.19V186c0-.72,0-1.45,0-2.2v-2.29h0l.2-.2c5.61,0,10.64,0,14,.07h.13v.13c0,1.39-.06,2.51-.07,3.36S168.25,186.05,168.24,186Z" style="fill:#263238"></path><g style="opacity:0.30000000000000004"><path d="M152.12,146.84l2.15,3s-.6,44.84-2.88,56Z"></path></g></g></svg>
